<svg width="1146" height="1547" viewBox="0 0 1146 1547" fill="none" xmlns="http://www.w3.org/2000/svg">
<path fill-rule="evenodd" clip-rule="evenodd" d="M204.03 585.632C198.744 580.435 190.34 581.727 185.185 586.348C179.939 591.041 176.782 598.417 174.088 604.776C162.003 633.365 164.818 664.667 158.704 694.578C147.517 700.622 137.417 708.514 130.266 719.13C119.401 735.256 114.246 754.037 119.694 773.149C122.508 783.038 127.29 792.201 130.7 801.879C134.342 812.182 136.571 822.889 137.64 833.768C138.69 844.445 138.831 855.181 138.528 865.898C138.367 871.448 138.074 876.989 137.782 882.529C137.519 887.494 136.64 892.675 137.827 897.54L137.973 898.1C137.509 898.029 137.055 897.938 136.601 897.838C132.706 896.969 129.277 895.617 125.212 896.152C122.044 896.566 120.4 899.209 121.742 902.197C122.327 903.498 123.104 904.588 124.042 905.517C115.87 965.965 101.596 1025.44 92.2039 1085.7C87.9468 1113.04 85.3541 1140.45 86.8169 1168.13L86.9705 1170.88C88.4619 1196.29 92.1258 1224.3 105.036 1246.52C111.069 1256.93 119.361 1266.16 129.409 1272.81C134.01 1275.86 138.942 1278.24 144.299 1279.43C172.061 1290.49 201.417 1287.78 227.595 1273.15C239.368 1266.58 251.111 1258.92 260.724 1249.42C265.395 1244.8 269.904 1238.91 272.669 1232.49C272.659 1233.93 272.919 1235.4 272.628 1236.83L272.046 1239.64C267.686 1260.53 251.069 1337.73 250.848 1344.21C250.728 1347.7 280.151 1347.62 283.344 1347.73L283.433 1347.73C331.085 1349.72 378.767 1348.65 426.393 1346.68L430.153 1346.53C476.341 1344.57 526.603 1341.94 572.84 1340.59L572.744 1339.82C572.191 1335.67 569.497 1317.19 569.197 1315.78L569.186 1315.73C567.875 1310.45 565.348 1294.01 566.678 1288.56C570.105 1274.52 585.55 1277.73 596.417 1279.22L598.706 1279.52C600.465 1279.76 604.745 1280.39 604.705 1280.43C605.859 1279.23 603.113 1275.81 602.437 1274.9L601.895 1274.15C598.975 1270.06 596.334 1265.81 596.623 1260.55C597.325 1247.68 615.702 1248.41 624.733 1249.3C625.369 1249.36 625.63 1250.36 624.896 1250.51L623.115 1250.88C617.385 1252.11 604.659 1255.24 604.947 1259.99C605.111 1262.68 607.979 1264.67 609.731 1266.36C611.663 1268.24 613.582 1270.25 615.008 1272.55C617.752 1276.97 618.375 1282.94 615.661 1287.54C612.529 1292.85 606.974 1293.47 601.411 1292.99L601.097 1292.96C599.872 1292.85 598.648 1292.73 597.424 1292.61L590.079 1291.89C588.261 1291.72 582.417 1290.18 580.71 1291.24C578.291 1292.74 581.2 1299.37 581.746 1301.56L581.775 1301.72C582.244 1304.88 582.524 1338.05 582.572 1340.24C618.605 1339.4 654.644 1331.38 690.676 1333.27C719.302 1334.76 747.85 1337.35 776.422 1339.59L777.144 1333.46C785.063 1266.65 797.48 1178.49 791.52 1112.41C791.054 1107.24 799.128 1107.27 799.591 1112.41C805.752 1180.74 792.265 1272.53 784.419 1340.21C796.582 1341.13 808.751 1341.97 820.933 1342.61L824.039 1342.77C865.494 1344.84 908.28 1344.97 948.849 1335.46C950.1 1335.16 950.524 1333.91 950.261 1332.87C950.665 1333.11 951.27 1332.97 951.442 1332.41C956.168 1316.83 958.568 1277.15 960.71 1259.98L960.854 1258.86C963.053 1242.17 964.314 1225.3 965.222 1208.52C967.058 1174.94 966.836 1141.33 964.354 1107.8C956.455 1000.84 925.001 892.781 858.985 806.823C843.026 786.045 824.857 767.033 803.057 752.33C781.67 737.901 757.681 727.738 733.339 719.484C717.248 714.024 700.905 709.351 684.563 704.689C683.944 704.38 683.325 704.075 682.704 703.775L681.768 703.328C675.958 700.572 670.238 697.555 664.286 695.102L662.971 694.567C654.346 691.107 644.297 688.044 634.96 688.149C619.838 680.531 607.137 669.017 608.368 650.549C608.872 642.961 596.969 642.971 596.545 650.549C595.435 670.712 607.853 685.011 623.682 694.608L623.606 694.685L623.53 694.769C621.059 697.575 618.416 700.178 615.561 702.6C598.472 717.152 576.853 729.232 555.244 737.183C529.893 746.518 504.562 749.313 478.343 741.766C464.634 737.819 451.691 731.734 439.797 723.863C436.165 721.461 432.685 718.889 429.346 716.133C432.503 711.814 435.025 707.162 437.144 702.227C441.4 692.297 444.922 678.845 440.574 668.36C439.504 665.777 435.257 664.183 433.774 667.472C429.689 676.474 427.984 686.202 423.222 695.002C421.407 698.352 419.318 701.531 416.978 704.528C416.978 704.689 399.102 707.747 399.102 707.747C377.493 707.737 357.146 716.042 338.029 726.416C326.729 732.55 315.623 739.072 304.55 745.604L282.908 758.375C281.314 759.313 279.529 760.222 277.743 761.191C279.831 750.877 280.85 740.362 280.164 729.938C279.125 714.215 273.012 697.021 256.82 691.419C249.164 688.765 240.306 689.582 232.871 692.529C229.441 693.891 225.709 695.698 222.521 698.11C220.977 691.167 214.471 685.96 207.934 683.66C205.815 682.912 203.646 682.438 201.447 682.206C201.512 681.092 201.518 679.965 201.503 678.804L201.488 677.927C201.387 672.78 201.427 667.634 201.538 662.497C201.74 652.759 202.204 643.223 203.192 633.515C204.018 625.479 205.452 617.534 206.517 609.53L206.958 606.09C207.856 599.312 209.363 590.871 204.03 585.632ZM854.047 1242.77L855.851 1241.7C861.758 1238.21 867.843 1234.99 875 1236.61C881.817 1238.14 886.653 1243.68 889.195 1249.92C890.395 1252.87 891.021 1255.84 891.485 1258.98C891.745 1260.74 891.92 1262.51 892.229 1264.26L892.332 1264.81C892.472 1265.5 892.686 1266.47 892.881 1267.32C894.741 1266.5 896.614 1265.2 898.137 1264.43L899.364 1263.81C902.246 1262.37 905.243 1261.01 908.383 1260.34C915.184 1258.91 922.729 1260.99 926.617 1267.08C929.942 1272.29 929.874 1278.44 928.602 1284.28L928.512 1284.68C927.96 1287.11 925.108 1296.82 920.96 1295.4C916.926 1294.02 916.387 1288.66 916.081 1285.08L916.058 1284.74C915.921 1282.05 916.455 1276.38 913.404 1275.36C909.592 1274.08 902.257 1279.92 898.937 1281.45C893 1284.17 886.478 1284.98 881.647 1279.67C877.315 1274.92 876.95 1267.95 875.829 1261.92L875.539 1260.4C874.944 1257.33 873.794 1252.44 870.403 1252.56C867.631 1252.66 864.589 1255.54 862.305 1256.9C859.784 1258.41 857.166 1259.66 854.43 1260.73C848.045 1263.23 840.947 1264.02 834.154 1263.29C830.219 1262.86 827.657 1260.98 826.265 1257.28C825.794 1256.19 825.435 1255.07 825.187 1253.91C822.982 1245.62 835.031 1239.71 839.474 1247.12C844.599 1246.93 849.371 1245.55 854.047 1242.77ZM112.482 1187.34C116.156 1184.72 121.146 1185.29 124.429 1188.24L124.625 1188.42C125.535 1189.3 127.587 1191.59 128.916 1193.6L129.332 1193.28C129.399 1193.23 129.464 1193.18 129.526 1193.13L129.706 1192.98C132.422 1190.68 135.26 1188.58 138.754 1187.64C147.86 1185.19 156.135 1191.29 160.111 1199.11C161.996 1202.82 162.803 1206.65 163.743 1210.64L163.823 1211.01C164.202 1212.88 164.695 1216.66 166.329 1217.58C166.929 1217.92 168.291 1217.25 169.639 1216.47C172.713 1214.7 175.472 1212.43 178.484 1210.56C185.552 1206.18 193.583 1204.36 201.52 1207.53C209.377 1210.66 215.007 1218.04 215.139 1226.65C215.237 1232.99 210.99 1244.07 202.997 1243.29C201.396 1243.14 199.335 1242.15 199.076 1240.31C198.387 1235.41 202.248 1229.39 197.82 1225.34C193.537 1221.43 189.101 1224.72 185.224 1227.43L182.446 1229.38C177.934 1232.52 173.288 1235.39 167.576 1235.73C160.349 1236.16 153.676 1232.17 150.04 1226.02C146.752 1220.45 146.704 1214.16 144.133 1208.45C143.571 1207.2 142.123 1206.05 142.605 1205.48C140.657 1206.49 138.144 1209.42 136.93 1210.24C130.888 1214.31 122.809 1214.28 117.512 1208.88C115.401 1206.73 114.058 1204.07 112.495 1201.54C111.93 1200.62 111.225 1199.77 110.709 1198.83C110.521 1198.48 110.211 1197.2 109.956 1196.05L109.565 1194.23L109.524 1193.93C109.189 1191.17 110.163 1189 112.482 1187.34ZM345.228 1163.25C352.169 1159.61 360.727 1160.99 366.981 1165.41C373.993 1170.37 377.434 1177.98 379.774 1186.02C381.477 1191.87 382.293 1199.95 387.187 1204.19C392.883 1209.12 402.431 1203.89 408.443 1201.94C415.718 1199.59 424.459 1198.62 431.557 1202.1C438.513 1205.52 441.865 1212.47 442.583 1219.93C443.254 1226.89 442.258 1236.05 438.29 1241.87C437.899 1242.44 437.154 1242.3 436.907 1241.69C434.299 1235.26 434.801 1227.92 432.684 1221.27C430.423 1214.17 425.125 1212.67 418.398 1214.58C411.382 1216.57 404.957 1220.3 397.741 1221.62C390.048 1223.04 382.43 1221.58 376.366 1216.49C371.263 1212.22 368.173 1205.98 366.085 1199.77C364.05 1193.72 363.718 1185.62 359.384 1180.59C358.291 1179.32 356.385 1177.79 354.616 1177.63C351.987 1177.38 351.037 1179.34 348.913 1180.84C343.311 1184.79 334.369 1184.87 330.939 1177.92C329.816 1175.64 329.259 1172.4 330.939 1170.18C333.884 1166.27 336.302 1166.3 340.188 1167.15C340.311 1167.04 340.45 1166.91 340.604 1166.73L340.724 1166.58C341.751 1165.28 343.748 1164.03 345.228 1163.25ZM620.164 1122.2C620.394 1116.98 626.686 1111.96 631.649 1115.61C632.45 1116.19 633.238 1116.79 634.011 1117.41L634.328 1117.75V1117.75C635.251 1117.75 636.112 1117.51 637.024 1117.22L638.619 1116.7C642.808 1115.38 646.834 1114.31 651.305 1115.29C658.997 1116.98 663.877 1123.61 666.383 1130.66C668.719 1137.23 667.952 1143.93 669.048 1150.66C670.086 1157.04 673.365 1159.53 679.523 1158.17L679.839 1158.09C692.087 1155.16 706.041 1146.96 716.779 1158.2C728.379 1170.36 720.791 1189.65 708.093 1197.46C707.538 1197.8 706.925 1197.24 707.051 1196.66C708.738 1188.81 713.66 1181.33 712.01 1172.99C710.867 1167.22 706.856 1164.49 701.132 1165.41C689.093 1167.35 677.833 1176.94 665.485 1169.98C659.318 1166.5 655.919 1159.96 654.383 1153.26C652.998 1147.23 653.391 1140.44 650.739 1134.75C647.837 1128.53 642.951 1133.04 637.685 1133.89C630.235 1135.09 619.768 1131.18 620.164 1122.2ZM216.262 936.289C216.238 931.094 224.309 931.088 224.333 936.289C224.631 1002.11 255.411 1062.94 260.94 1128.1C261.378 1133.28 253.306 1133.25 252.87 1128.1C247.339 1062.92 216.56 1002.21 216.262 936.289ZM882.679 1044.03C886.928 1039.21 893.152 1040.71 898.208 1043.12C905.802 1046.74 913.07 1050.81 920.037 1055.52C921.751 1056.67 920.67 1059.19 918.653 1058.8C913.543 1057.82 908.57 1056.72 903.612 1055.12C899.887 1053.93 896.009 1052.19 892.124 1051.57C892.367 1052.47 892.663 1053.34 893.011 1054.2C893.648 1055.97 894.389 1057.69 895.017 1059.46C896.268 1062.99 897.394 1066.56 898.487 1070.14L899.03 1071.93C901.301 1079.43 903.507 1090.34 893.028 1092.65C889.14 1093.51 885.286 1091.81 881.669 1090.48L880.924 1090.21L867.731 1085.53C866.16 1084.98 863.248 1084.59 861.945 1083.61L862.153 1084.61C862.423 1085.94 862.688 1087.25 863.26 1088.57L863.579 1089.3C866.857 1096.74 870.988 1104.17 867.166 1112.39C863.892 1119.43 856.151 1122.77 848.692 1120.77C841.603 1118.87 836.473 1110.88 840.143 1103.94C841.511 1101.35 845.512 1100.08 848.055 1101.7L848.738 1102.15C849.539 1102.68 850.917 1103.57 850.951 1103.74C851.14 1103.79 851.339 1103.84 851.541 1103.89C851.113 1102.63 850.825 1100.69 850.449 1099.84L849.069 1096.7C846.5 1090.81 844.274 1084.81 846.234 1078.2C851.846 1059.27 870.877 1070.03 884.915 1075.44C884.71 1074.64 884.508 1073.85 884.336 1073.07C883.731 1070.33 883.069 1067.61 882.414 1064.88L881.071 1059.25C879.862 1054.06 878.921 1048.28 882.679 1044.03ZM164.423 1022.9C164.411 1022.45 164.962 1022.11 165.348 1022.37C174.324 1028.4 180.328 1041.01 176.956 1051.74C175.318 1056.96 171.836 1061.53 166.947 1064.06C160.869 1067.2 154.157 1066.01 147.771 1064.66L145.059 1064.08C143.147 1063.68 141.261 1063.38 139.315 1063.92C138.647 1064.11 137.872 1064.69 137.238 1064.81C137.5 1065.26 137.779 1066.03 137.92 1066.32L138.382 1067.25C138.847 1068.2 139.3 1069.18 139.584 1070.17C140.539 1073.49 140.303 1077.06 138.757 1080.17C135.878 1085.95 129.839 1089.2 123.553 1089.76C119.807 1090.09 110.369 1086.81 108.138 1090.78C103.709 1098.67 91.0983 1093.37 93.5497 1084.63C95.2072 1078.73 99.9092 1074.91 105.735 1073.31C108.839 1072.46 112.052 1072.58 115.209 1072.92C116.445 1073.06 117.678 1073.25 118.916 1073.38L119.845 1073.47C119.603 1073.45 122.411 1073.38 123.538 1073.31L123.298 1072.66C123.262 1072.57 123.23 1072.49 123.201 1072.43C121.947 1069.74 121.016 1067.07 121.092 1064.07C121.23 1058.66 124.731 1053.94 129.33 1051.33C133.57 1048.93 138.619 1047.97 143.439 1048.51C148.737 1049.1 156.267 1053.29 161.477 1051.08C165.403 1049.41 166.735 1043.6 166.796 1039.79C166.887 1034.05 164.583 1028.62 164.423 1022.9ZM529.991 985.266C544.431 978.784 556.831 989.856 565.305 1000.45C565.742 1001 565.192 1001.92 564.503 1001.49L563.378 1000.79C556.459 996.449 548.788 991.32 540.214 992.798C532.452 994.137 530.53 999.218 532.075 1006.14L532.528 1008.09C534.17 1015.22 535.429 1022.6 531.34 1029.23C527.479 1035.49 519.946 1038.22 512.892 1038.39C504.754 1038.58 497.73 1034.8 490.29 1032.16L489.702 1031.95C486.542 1030.86 475.014 1028.01 474.855 1034.5C474.78 1037.47 477.958 1040.96 479.18 1043.63C480.779 1047.12 481.843 1050.79 481.824 1054.66C481.776 1064.33 473.712 1072.19 464.17 1067.5C460.46 1065.67 459.504 1060.44 461.439 1057.08C464.163 1052.34 465.267 1052.58 463.357 1047.61L462.806 1046.21C460.457 1040.21 458.586 1034.04 461.226 1027.74C466.498 1015.17 482.306 1013.65 493.6 1017.81L494.012 1017.97C501.042 1020.69 522.094 1031.61 520.643 1016.17C520.072 1010.09 518.227 1004.26 519.517 998.114C520.715 992.406 524.697 987.643 529.991 985.266ZM599.571 933.64C602.207 928.997 611.057 930.658 610.323 936.552L610.088 938.387C609.788 940.898 609.723 943.257 611.457 945.49C613.561 948.201 617.164 949.02 620.433 948.606C627.356 947.729 631.77 941.308 639.389 942.808C645.573 944.025 649.843 949.087 652.316 954.606C654.933 960.451 654.878 966.787 656.828 972.806C659.074 979.727 663.862 979.408 669.842 976.986L671.13 976.457C676.851 974.078 682.591 971.435 688.965 972.571C699.553 974.462 708.67 990.746 698.751 998.609C696.96 1000.03 693.831 999.287 693.906 996.603L693.916 996.094C693.967 991.209 692.735 984.906 687.138 983.755C681.204 982.534 674.498 987.951 668.987 989.511C654.713 993.549 646.583 982.803 644.158 970.093L644.07 969.606C643.296 965.157 642.684 956.925 638.033 954.842C635.552 953.731 632.906 956.465 630.833 957.566C627.612 959.275 624.156 960.361 620.512 960.638C607.032 961.667 591.716 947.485 599.571 933.64ZM262.254 916.084C266.696 914.16 273.319 915.23 274.405 921.029L275.063 924.678C276.354 931.726 278.408 940.538 285.334 943.076C289.666 944.664 294.64 941.882 298.525 940.185C303.191 938.146 307.74 936.397 312.849 935.913C323.217 934.93 330.939 940.93 334.606 950.307L334.926 951.142C337.884 959.021 341.881 974.09 335.405 980.481C334.46 981.414 332.554 981.87 331.394 980.999C327.568 978.127 326.6 973.408 325.286 968.982L325.173 968.603C323.779 964.007 322.636 958.945 320.119 954.804C315.44 947.107 303.232 955.895 297.36 957.925C287.717 961.258 277.717 959.31 270.347 952.181C265.693 947.677 262.941 941.977 261.048 935.943C259.84 936.568 258.586 937.108 257.235 937.474C252.09 938.867 245.987 938.133 242.07 934.233C234.718 926.916 238.705 913.79 249.915 915.913C252.122 916.33 253.571 918.44 253.833 920.594L253.984 920.934V920.934C256.804 920.002 259.888 917.108 262.254 916.084ZM781.703 850.709C792.176 839.93 810.352 845.773 817.515 857.206C819.001 859.577 816.547 862.582 813.938 861.862C807.702 860.143 798.904 853.378 792.314 857.684C787.43 860.876 790.087 869.218 790.534 873.885L790.598 874.581C791.163 880.935 791.292 889.627 786.345 894.383C783.497 897.12 779.131 896.75 775.376 896.359L774.182 896.236C769.755 895.791 765.358 895.01 761.118 893.647C757.22 892.396 753.526 890.695 749.864 888.894L748.949 888.442C747.328 887.638 741.921 884.448 740.302 886.452C739.458 887.498 741.55 892.077 741.985 893.098C743.627 896.939 745.716 900.556 747.222 904.465C749.876 911.352 750.098 919.123 746.37 925.695C742.759 932.064 734.933 937.224 727.998 932.331C724.027 929.53 724.038 924.434 727.998 921.63C730.093 920.147 732.206 919.169 733.071 916.681C734.201 913.436 732.747 909.994 731.34 906.99L729.655 903.418C725.922 895.439 722.193 886.262 727.408 878.106C732.793 869.684 743.737 869.551 752.017 873.059C756.742 875.061 761.053 877.746 765.977 879.295C769.384 880.368 772.804 881.084 776.293 881.477C777.071 877.277 775.971 872.575 775.959 868.403C775.941 862.064 777.122 855.423 781.703 850.709ZM241.628 700.774C259.302 698.18 267.857 713.993 269.077 729.221C270.177 743.046 267.937 756.912 264.437 770.354C263.125 775.339 261.653 780.263 260.109 785.107C257.627 792.888 254.934 800.658 251.655 808.145C250.657 810.406 249.648 812.676 248.518 814.856C244.648 818.03 241.336 822.306 238.326 826.415L236.348 829.13V829.13L235.817 829.862C230.703 836.865 226.334 844.131 222.763 852.033C219.362 859.558 216.83 867.403 214.863 875.412L214.379 877.412C212.865 883.575 210.634 890.932 213.331 896.668C208.035 898.301 202.769 899.785 197.14 900.572C189.372 901.662 181.291 901.732 173.453 901.45C165.879 901.172 158.314 900.581 150.773 899.777L145.34 899.179C144.777 899.115 144.215 899.048 143.653 898.977C143.865 898.715 144.046 898.422 144.178 898.1C146.113 893.458 145.864 888.075 146.078 883.082L146.104 882.529C146.387 876.989 146.558 871.448 146.629 865.898C146.76 855.484 146.478 845.039 145.338 834.676C144.35 825.604 142.806 816.531 140.395 807.722C137.963 798.791 134.251 790.405 130.821 781.827C127.431 773.351 124.636 764.643 124.94 755.398C125.131 749.525 126.423 743.813 128.612 738.414C128.714 738.495 128.843 738.556 128.995 738.546C135.865 738.293 142.372 736.305 149.01 734.63C156.051 732.845 163.264 731.381 170.467 730.513L171.998 730.333C178.001 729.659 184.541 729.331 190.088 731.905C196.091 734.702 199.874 740.918 202.153 746.881L202.408 747.568C206.458 758.874 205.529 773.964 193.004 779.314C189.12 780.98 180.252 781.999 178.255 776.731C177.357 774.329 179.203 770.778 179.899 768.508C180.716 765.802 181.251 763.138 181.19 760.313C181.142 757.835 179.249 755.965 176.841 755.765L176.621 755.751C172.242 755.561 163.214 750.515 162.336 757.78C162.164 759.192 163.244 760.676 164.384 761.363C166.684 762.724 169.085 763.634 171.587 764.188C171.244 765.701 170.759 767.185 170.284 768.658C170.003 768.517 169.69 768.427 169.357 768.396C165.655 768.093 161.993 768.679 158.291 768.719L156.267 768.733C153.394 768.761 150.888 768.916 148.102 770.404C145.529 771.776 145.983 775.217 148.102 776.691C153.66 780.546 163.072 778.285 168.863 774.37C168.611 776.358 168.732 778.386 169.579 780.515C172.081 786.834 179.254 789.981 185.669 790.253C191.369 790.496 196.817 788.699 201.367 785.551C202.295 788.871 203.788 792.06 204.433 795.502C205.281 800.022 204.272 805.31 205.845 809.558C207.419 813.838 213.502 816.703 217.023 812.505C222.178 806.369 220.574 796.651 216.045 790.435C213.634 787.145 209.255 783.371 204.796 782.776C207.893 779.86 210.375 776.257 211.939 772.281C212.05 772.331 212.181 772.341 212.322 772.301C226.819 768.336 234.707 755.196 235.192 741.401C236.261 742.168 237.37 742.856 238.531 743.47C241.305 744.965 244.866 743.652 245.724 740.554C246.51 737.668 244.22 734.106 241.002 734.348C239.166 734.499 237.32 734.509 235.494 734.206C235.242 734.166 235 734.116 234.748 734.065C234.586 733.005 234.375 731.946 234.112 730.896C239.59 731.522 245.32 730.624 250.616 729.453C255.176 728.454 254.117 721.199 249.527 721.37L248.789 721.402C242.767 721.692 233.876 722.664 228.715 718.847C227.807 717.535 226.798 716.294 225.709 715.124C225.568 714.831 225.447 714.519 225.336 714.195C222.561 706.203 235.706 701.642 241.628 700.774ZM400.284 813.21C407.165 811.37 414.407 813.877 419.139 819.074C423.115 823.443 425.175 828.807 427.016 834.291L428.066 837.446C429.596 841.912 431.353 845.457 436.82 843.754C443.827 841.571 449.901 837.768 457.521 838.068C464.447 838.342 471.225 841.322 476.047 846.317C480.98 851.426 483.335 858.545 482.288 865.559L482.219 865.988C481.673 869.219 476.949 880.751 471.942 875.442C469.707 873.075 470.148 870.454 469.617 867.446C469.113 864.58 468.033 861.77 466.265 859.446C463.13 855.326 458.087 853.721 453.157 855.178C446.654 857.1 440.911 861.063 433.906 861.156C426.536 861.255 420.28 857.432 416.215 851.431C412.934 846.586 411.763 840.916 409.454 835.648L409.232 835.146C407.293 830.811 405.972 829.247 401.531 831.319L399.979 832.063C393.331 835.224 385.852 838.116 378.977 833.66C372.591 829.522 369.868 821.205 375.24 815.149C378.204 811.806 385.064 812.375 386.99 816.663C387.328 817.401 387.642 818.149 387.951 818.899C388.539 818.719 389.111 818.501 389.654 818.196C393.257 816.572 396.386 814.254 400.284 813.21ZM601.156 764.247C609.005 760.016 615.558 768.338 614.304 775.853L614.243 776.182C614.197 776.409 614.091 776.904 613.959 777.471C614.359 777.422 614.756 777.352 615.151 777.251L616.975 777.028C619.841 776.694 622.62 776.521 625.489 777.442C632.262 779.615 635.592 786.2 635.755 792.948C635.917 799.673 632.439 805.097 631.417 811.521C630.372 818.091 637.17 816.215 641.608 815.734L641.782 815.716C647.955 815.091 654.446 815.08 659.577 819.106C664.876 823.262 667.224 830.445 666.475 837.022C665.799 842.961 662.084 852.103 655.353 853.042C654.688 853.135 653.932 852.988 653.591 852.324C650.869 847.03 654.656 841.184 654.228 835.599C653.757 829.456 649.842 828.434 644.444 828.832C639.205 829.217 633.98 830.329 628.805 828.766C623.192 827.069 619.119 822.251 617.967 816.568C616.697 810.304 619.031 804.476 620.545 798.523C621.049 796.546 621.296 794.557 620.949 792.536C620.874 792.099 620.495 791.696 620.358 791.523C619.496 791.362 618.207 791.774 617.469 791.853L616.423 791.956C610.739 792.47 605.262 792.125 601.201 787.427C599.119 785.019 598.35 782.077 598.558 778.972L598.662 777.718C598.773 776.512 598.986 774.92 599.613 774.256L599.621 774.223V774.223C599.41 773.941 599.211 773.651 599.028 773.35L598.851 773.045C597.11 770.141 598.12 765.884 601.156 764.247ZM199.035 690.592C206.853 690.592 214.239 693.145 220.15 700.098C218.042 702.106 216.357 704.437 215.428 707.172C212.534 705.587 209.467 704.347 206.33 703.468C196.756 700.794 183.662 700.834 175.612 707.404C171.395 710.835 176.025 716.99 180.565 715.931C184.63 714.982 188.161 713.226 192.429 713.025C196.131 712.843 199.762 713.327 203.313 714.397C208.731 716.033 213.654 719.13 217.275 723.398C218.486 724.831 219.545 726.386 220.433 728.062C227.192 740.897 222.097 759.303 212.766 769.869C216.428 757.699 212.776 743.349 205.482 733.269C196.701 721.131 183.568 719.755 169.732 721.65L169.275 721.713C155.89 723.601 139.315 726.9 129.308 736.739C130.306 734.469 131.456 732.269 132.749 730.139C140.334 717.646 152.914 707.898 165.968 700.945C168.157 699.765 170.366 698.675 172.565 697.666C180.928 693.821 190.249 690.592 199.035 690.592ZM194.759 595.249L194.789 595.391C194.796 595.417 194.803 595.444 194.809 595.471C195.271 599.574 194.18 604.285 193.624 608.426L193.548 609.013C192.378 618.439 190.835 627.874 190.33 637.37C189.839 646.502 190.028 655.974 191.126 665.066L191.289 666.362C191.934 671.317 192.318 677.13 193.991 682.216C187.556 682.831 181.12 684.9 175.269 687.101C173.17 687.897 171.082 688.735 169.004 689.624C171.607 675.788 172.999 661.751 175.824 647.956L176.379 645.21C179.45 629.95 182.332 614.592 190.27 600.94C191.329 599.124 192.469 597.6 193.76 595.975C194.043 595.603 194.375 595.361 194.759 595.249Z" fill="black"/>
<path fill-rule="evenodd" clip-rule="evenodd" d="M550.659 238.716C514.493 235.053 479.054 238.131 443.413 244.5C440.689 244.993 439.146 246.78 438.572 248.929C421.784 249.696 404.978 250.928 388.212 251.846C382.128 252.179 378.679 258.192 381.453 263.623C382.007 264.701 382.583 265.751 383.168 266.8L382.433 266.558C377.39 264.939 371.942 264.141 367.027 266.711C360.773 269.98 358.32 277.194 359.702 283.835C360.057 285.53 360.651 287.155 361.327 288.74C359.955 288.649 358.573 288.679 357.201 288.861C349.897 289.83 344.47 295.43 344.086 302.888C343.521 314.149 350.775 325.573 359.319 333.635C358.079 336.189 357.604 339.197 358.12 342.244C359.149 348.269 363.585 351.876 368.728 354.23C366.584 361.042 365.57 368.165 366.168 375.444C366.368 377.874 368.492 379.881 370.735 380.373C362.376 403.396 358.145 428.113 355.102 452.198C352.933 469.334 351.864 486.57 351.734 503.836C351.67 511.63 351.799 519.434 352.126 527.23L352.258 530.154C352.661 538.581 352.681 547.43 354.194 555.766C349.029 564.555 346.951 575.465 346.074 585.313C344.984 597.503 346.709 610.077 350.554 621.673C365.06 665.488 408.841 693.139 452.816 700.325C493.52 706.975 540.621 698.024 564.409 661.038C564.782 660.453 563.985 659.97 563.521 660.353C546.502 674.197 526.761 680.373 505.313 683.38C468.229 688.568 426.547 679.768 396.787 656.438C382.502 645.236 372.203 628.929 367.672 611.379C365.362 602.409 364.565 593.053 365.474 583.82C366.402 574.456 370.547 566.463 373.16 557.613C374.038 554.625 373.109 551.85 371.284 549.873C370.77 542.687 369.558 535.442 369.095 528.278C368.581 520.133 368.267 511.989 368.156 503.836C367.944 486.922 368.651 469.979 370.073 453.138C372.676 422.298 379.586 392.206 383.641 361.629C385.143 362.976 387.295 363.529 389.551 362.352L389.785 362.224L391.016 361.519C391.086 361.519 391.167 361.529 391.239 361.538C399.661 362.356 408.397 361.186 416.468 358.672C424.912 356.049 432.75 352.013 439.752 346.634C441.083 353.384 441.638 360.206 441.648 367.088C441.658 371.387 446.207 373.618 449.819 371.781C465.829 363.647 481.122 354.273 495.639 343.738C497.334 352.426 499.028 361.114 500.734 369.813C501.389 373.164 505.657 374.516 508.391 372.922C519.265 366.593 528.657 358.31 536.303 348.459C537.83 351.38 539.361 354.3 540.903 357.213L543.224 361.578C545.514 365.867 548.581 370.611 553.594 371.982C558.901 373.435 563.33 369.995 565.115 365.191C565.66 363.698 566.164 362.163 566.628 360.619C571.149 370.944 576.252 381.035 582.022 390.662C590.678 405.102 601.07 417.968 611.429 431.168C614.576 435.175 619.963 431.35 620.397 427.455C620.649 425.165 620.861 422.864 621.044 420.572C627.081 432.758 633.38 444.831 640.242 456.553L639.26 460.404V460.404C636.428 471.785 634.077 483.247 631.52 494.689C630.695 498.38 632.656 503.658 636.968 504.287C642.119 505.037 646.992 507.67 652.268 505.859C658.022 503.883 659.159 498.909 661.874 494.194C662.416 493.255 663.046 492.392 663.724 491.573L663.897 491.797V491.797C664.321 492.353 665.329 491.747 665.077 491.111L664.782 490.377V490.377C667.115 487.899 669.907 485.833 672.475 483.609C678.576 482.581 685.439 483.707 689.643 486.187C699.216 491.837 703.613 503.482 703.704 514.19C703.815 526.724 699.932 540.811 693.375 551.528C690.489 556.241 686.534 560.498 681.31 562.588C676.124 564.666 670.505 564.021 665.228 565.978C661.738 567.281 659.589 571.156 661.698 574.667C661.839 574.91 662 575.131 662.153 575.364L660.583 577.447C659.504 578.89 658.379 580.435 657.33 582.043C654.646 585.132 651.821 588.109 649.088 591.147C644.035 596.746 639.131 602.499 634.158 608.18C629.466 613.539 624.503 618.574 619.388 623.529C614.556 628.222 608.524 632.167 604.085 637.173C599.768 642.057 598.597 650.584 605.7 653.41C613.558 656.545 620.514 649.198 625.804 644.3L626.026 644.095C635.723 635.169 644.479 624.969 651.433 613.738C658.321 618.429 668.284 618.877 675.143 614.187C678.752 611.72 681.522 607.573 682.867 603.063C684.136 603.347 685.405 603.514 686.641 603.494C687.278 603.864 687.916 604.223 688.562 604.558C693.678 607.221 699.962 606.031 702.302 600.369C704.433 595.229 702.237 589.391 700.317 584.439L699.921 583.416C698.832 580.591 697.631 577.513 696.138 574.617C700.294 571.489 703.846 567.603 706.852 563.184C716.95 548.299 721.994 526.531 719.764 508.771C718.423 498.054 713.39 486.954 705.148 479.727L705.449 478.94V478.94C707.76 473.078 709.859 467.194 711.22 460.999C712.814 453.753 713.591 446.245 714.297 438.869C715.79 423.288 715.386 407.353 713.399 391.833C709.666 362.619 700.204 333.939 683.407 309.629C688.17 303.926 691.942 297.216 689.975 289.497C689.077 285.954 687.03 282.594 683.942 280.565C682.238 279.446 680.209 279.274 678.504 278.346L677.992 278.064C677.243 277.626 677.816 277.673 678.262 275.641C680.028 267.527 678.565 259.687 669.637 256.993C661.234 254.46 653.284 259.838 648.311 266.246C635.297 257.012 618.148 252.179 603.066 248.072C585.916 243.419 568.324 240.513 550.659 238.716ZM691.225 510.88C691.286 504.27 685.022 500.193 678.857 501.274C674.718 501.994 671.264 504.465 668.022 507.02L666.441 508.271C662.492 511.372 657.959 514.715 655.605 519.105C652.155 525.584 659.448 534.302 666.257 529.76C670.928 526.629 673.922 521.612 676.986 516.951L677.303 516.47C678.696 514.381 679.916 512.161 681.824 510.486L682.236 510.125C682.863 509.59 683.536 509.103 684.346 508.871C685.908 508.422 688.801 509.051 689.49 510.911L689.551 511.102C689.804 512.041 691.215 511.838 691.225 510.88Z" fill="black"/>
<path fill-rule="evenodd" clip-rule="evenodd" d="M437.778 611.695C445.21 613.848 453.186 614.04 460.761 611.817C467.632 609.8 474.687 605.361 479.744 599.487C484.236 594.27 487.145 587.929 487.031 581.16C487.018 580.387 486.742 579.742 486.316 579.241C485.859 578.702 485.22 578.332 484.535 578.171C483.831 578.006 483.087 578.064 482.453 578.352C481.879 578.613 481.387 579.056 481.08 579.703C480.303 580.725 479.529 581.731 478.752 582.709C472.503 590.427 466.452 596.195 457.056 598.264C451.958 599.386 446.867 598.889 442.195 597.176C437.194 595.342 432.674 592.118 429.131 587.993C427.53 586.128 425.64 585.367 423.792 585.354C421.698 585.34 419.628 586.313 418.068 587.869C416.535 589.399 415.509 591.477 415.416 593.651C415.334 595.559 415.957 597.552 417.612 599.331C423.065 605.188 430.132 609.479 437.778 611.695ZM438.008 515.028C430.39 519.66 418.782 530.461 426.977 541.944C436.624 552.069 450.512 540.46 457.356 535.21C463.703 531.141 470.833 541.606 464.945 546.357C415.49 582.984 395.42 516.239 434.155 509.582C438.419 508.848 440.003 513.595 438.008 515.028ZM509.269 494.647C511.717 493.08 514.597 492.543 517.789 493.995C520.284 495.13 524.659 498.913 527.703 503.885C529.786 507.287 531.263 511.278 530.956 515.436C530.885 516.401 531.241 517.113 531.804 517.639C532.248 518.055 532.89 518.36 533.643 518.456C534.283 518.537 535 518.464 535.582 518.282C536.69 517.936 537.276 517.217 537.497 516.63C539.629 510.967 538.71 504.647 536.321 498.945C533.097 491.251 527.241 484.805 523.405 482.727C516.84 479.17 509.095 479.006 502.521 482.63C496.924 485.714 493.425 490.694 489.945 495.77C489.205 496.849 488.471 497.92 487.712 498.972C486.191 501.081 486.04 503.172 486.629 504.965C487.281 506.952 488.945 508.629 491.025 509.506C492.948 510.317 495.18 510.431 497.155 509.598C498.823 508.894 500.354 507.522 501.323 505.194C502.955 501.273 505.673 496.947 509.269 494.647V494.647ZM384.918 503.37C386.595 504.244 387.907 504.507 389.767 503.95C390.795 503.641 391.812 503.048 392.608 502.252C393.397 501.463 393.966 500.482 394.187 499.393C394.731 496.707 396.201 494.192 398.295 492.552C400.085 491.151 402.344 490.408 404.85 490.827C407.554 491.279 410.13 493.014 411.904 495.059C412.497 495.743 412.962 496.521 413.429 497.293C414.304 498.736 415.153 500.078 416.359 501.139C416.816 501.542 417.505 501.821 418.172 501.821C418.443 501.821 418.718 501.777 418.98 501.696C421.672 498.993 422.189 496.944 422.102 494.91C422.011 492.778 421.171 490.62 419.813 488.605C416.628 483.881 410.58 480.007 406.498 479.129C400.909 477.928 395.358 479.37 390.908 482.493C386.329 485.706 382.936 490.695 381.878 496.317C381.623 497.671 381.732 499.132 382.247 500.399C382.751 501.638 383.629 502.698 384.918 503.37ZM496.942 444.273C500.296 447.542 504.266 448.049 508.282 448.499C510.514 448.752 512.295 448.955 514.048 449.351C518.867 450.439 523.63 452.078 527.975 454.438C532.517 456.905 537.467 459.88 541.029 463.692C541.875 464.599 542.674 465.55 543.473 466.504C544.202 467.374 544.904 468.211 545.644 469.019C546.494 469.946 547.301 470.918 548.104 471.887C548.6 472.705 548.698 472.906 548.798 473.116C548.949 473.431 549.124 473.783 549.323 474.161C549.597 474.678 549.918 475.244 550.253 475.758C550.812 476.697 551.112 476.955 551.371 477.071C551.801 477.262 552.208 477.357 552.604 477.306C552.974 477.258 553.324 477.079 553.669 476.788C555.391 475.332 555.899 472.944 555.847 470.408C555.768 466.561 554.349 462.301 553.041 459.682C550 453.597 545.783 447.272 540.712 442.73C534.925 437.547 528.595 433.622 521.323 430.918C516.804 429.237 511.572 427.694 506.649 427.889C503.106 428.029 499.723 429.083 496.929 431.714C495.214 433.329 494.39 435.627 494.39 437.923C494.39 440.265 495.246 442.62 496.942 444.273ZM378.096 474.209C378.309 474.559 378.605 474.8 378.933 474.945C379.278 475.096 379.662 475.14 380.031 475.078C380.398 475.016 380.747 474.849 381.024 474.595C381.29 474.351 381.492 474.027 381.582 473.631C383.809 463.847 388.133 456.567 397.363 451.873C401.903 449.564 407.124 448.097 412.066 446.927C413.502 446.587 415.02 446.366 416.548 446.143C421.337 445.444 426.162 444.643 429.284 440.77C431.166 438.437 431.955 435.453 431.509 432.725C431.088 430.156 429.588 427.8 426.86 426.389C420.068 422.876 411.628 426.323 404.769 429.259C404.26 429.477 403.761 429.691 403.272 429.897C396.565 432.729 390.448 436.467 385.419 441.813C381.429 446.055 377.733 452.325 376.244 458.775C375.005 464.141 375.297 469.619 378.096 474.209Z" fill="black"/>
<path fill-rule="evenodd" clip-rule="evenodd" d="M406.957 589.211C404.193 592.047 401.539 595.084 399.038 598.223C398.342 603.208 398.18 608.253 398.816 613.461C399.744 621.009 401.802 628.386 404.586 635.47C406.23 635.238 407.855 634.774 409.438 634.047C414.462 631.736 417.267 627.084 420.666 622.977C427.435 614.813 439.783 609.989 448.419 618.456C452.171 622.139 454.572 627.235 457.921 631.282C461.604 635.732 465.74 639.96 470.057 643.795C470.592 644.28 471.147 644.804 471.722 645.319C474.123 642.574 476.483 639.809 478.794 637.004C485.664 628.648 491.595 619.394 494.713 608.96C495.701 605.65 496.317 602.199 496.559 598.717C493.502 594.923 490.011 591.472 486.047 588.616C474.093 579.988 460.322 578.585 445.997 577.838C431.178 577.071 417.832 578.08 406.957 589.211M370.801 629.243C371.376 623.471 372.264 617.467 373.575 611.473C378.367 589.231 388.748 567.061 409.559 556.899C419.405 552.085 430.593 550.39 441.206 552.711C459.828 545.738 480.509 552.852 495.166 565.608C512.457 580.654 520.437 604.267 523.12 626.388C524.987 641.777 525.69 662.338 521.325 673.504C516.96 684.67 489.219 714.529 449.619 714.737C393.217 715.033 379.507 676.986 377.843 673.655C370.892 659.81 369.278 644.522 370.801 629.243" fill="black"/>
<path fill-rule="evenodd" clip-rule="evenodd" d="M330.796 488.705C340.414 553.783 407.554 560.98 419.483 496.373C417.568 495.535 416.191 493.884 416.479 490.679C416.547 476.599 412.177 461.719 399.481 453.889C386.36 445.81 371.005 445.009 355.822 445.212C326.847 444.522 327.456 468.748 330.796 488.705M429.994 460.402C439.087 460.018 450.592 460.339 458.738 465.881C460.977 459.849 466.796 453.408 472.675 449.963C450.823 450.603 428.328 448.452 406.312 446.782C411.582 450.375 416.485 455.774 419.672 462.015C422.629 460.438 426.864 460.586 429.994 460.402M470.076 495.604C495.291 582.426 558.231 544.584 565.093 533.457C577.47 515.044 579.798 470.285 569.017 458.318C553.584 447.496 531.737 450.281 513.506 450.016C480.012 450.468 456.225 460.491 470.076 495.604M301.023 455.672C307.874 454.776 315.195 454.595 321.565 457.613C323.526 449.274 329.683 442.303 336.634 439.235C337.476 438.18 337.349 437.613 340.224 437.771C357.873 432.465 377.622 435.272 394.582 440.714C421.368 442.97 449.47 444.749 476.481 447.858C501.783 436.491 578.143 434.825 582.888 462.842C588.857 461.949 599.023 457.249 604.039 463.624C640.831 457.385 678.847 466.056 715.799 469.918C725.1 471.631 729.891 490.097 719.333 489.844C713.397 488.233 719.515 478.346 711.523 477.603C675.87 473.707 640.998 468.181 604.981 467.534C606.234 473.756 581.159 474.16 580.789 470.527C580.735 470.555 580.679 470.573 580.624 470.597C586.82 493.696 581.228 526.939 570.03 541.263C554.341 560.018 514.952 565.399 497.487 553.332C474.957 542.194 451.52 486.286 458.103 467.712C446.155 463.924 434.343 465.061 421.943 466.99C424.781 475.012 429.682 494.759 422.632 496.471C423.926 535.676 388.258 560.138 355.377 544.056C326.917 530.692 316.965 488.391 320.447 462.716C316.904 469.564 287.156 462.108 301.023 455.672" fill="black"/>
</svg>
