<svg width="1146" height="1547" viewBox="0 0 1146 1547" fill="none" xmlns="http://www.w3.org/2000/svg">
<path fill-rule="evenodd" clip-rule="evenodd" d="M325.861 1017.63C318.233 1022.68 311.818 1030.33 306.668 1038.38C328.168 1036.14 349.63 1033.56 371.045 1030.63C368.242 1028.83 365.412 1027.08 362.518 1025.42C351.959 1019.47 337.652 1009.83 325.861 1017.63ZM683.063 1081.2C687.002 1079.66 688.527 1073.65 690.062 1070.21C694.876 1059.41 699.269 1048.42 703.84 1037.52C686.485 1032.57 669.607 1027.08 651.629 1024.44C632.297 1021.61 612.68 1020.92 593.169 1021.56C553.651 1022.85 514.499 1029.31 475.646 1036.24C436.838 1043.16 398.033 1049.8 358.954 1055.02C320.667 1060.13 282.258 1063.87 243.779 1067.16C236.302 1067.8 223.837 1070.48 217.824 1064.6C213.064 1059.94 212.909 1051.34 218.866 1047.55C222.577 1045.19 227.953 1045.16 232.192 1044.61C237.53 1043.92 242.89 1043.47 248.261 1043.11C250.449 1042.97 252.637 1042.83 254.826 1042.7C237.256 1036.07 218.905 1032.46 199.856 1033.47C198.779 1040.01 193.926 1046.75 191.27 1052.15C186.631 1061.57 183.016 1071.11 180.642 1081.36C175.68 1102.78 175.465 1125.01 176.866 1146.86C178.153 1165.08 180.918 1185.23 195.203 1198.13C206.018 1207.9 221.277 1211.52 235.434 1212.65C251.887 1213.98 268.595 1212.56 284.911 1210.36C307.794 1207.26 330.785 1203.17 353.219 1197.68C396.669 1187.06 438.316 1170.16 476.741 1147.24C495.479 1136.06 513.359 1123.49 532.355 1112.74C551.711 1101.78 572.306 1093.28 593.933 1088C618.135 1082.09 643.436 1079.57 668.311 1081.03C672.628 1081.28 678.864 1082.85 683.063 1081.2ZM711.11 1070.24C708.566 1078.49 706.62 1087.92 701.192 1094.86C695.815 1101.73 687.703 1104.16 679.3 1104.77C669.168 1105.5 658.916 1105.03 648.762 1105.41C627.935 1106.18 607.394 1109.57 587.484 1115.77C568.93 1121.56 551.707 1130.58 535.116 1140.59C519.774 1149.85 504.882 1159.79 489.535 1169.02C493.62 1170.89 497.658 1172.92 501.719 1174.68C510.235 1178.38 518.804 1181.95 527.411 1185.43C544.384 1192.3 561.429 1198.99 578.648 1205.21C613.369 1217.75 648.661 1228.71 684.377 1238.05C701.412 1242.5 718.689 1247.7 736.386 1248.44C752.079 1249.1 766.615 1244.66 779.271 1235.32C805.522 1215.97 826.408 1188.02 843.291 1160.46C853.322 1144.08 862.075 1126.88 869.315 1109.09C872.977 1100.09 876.298 1090.96 879.287 1081.72C880.689 1077.38 882.019 1073.01 883.278 1068.63C883.832 1066.7 884.362 1064.77 884.888 1062.83C858.045 1054.64 830.883 1047.24 803.083 1043.14C788.241 1040.94 773.2 1039.83 758.196 1039.99C750.748 1040.07 743.304 1040.48 735.895 1041.25C731.907 1041.66 727.935 1042.19 723.981 1042.85C722.347 1043.12 720.667 1043.53 718.982 1043.82C716.409 1052.64 713.814 1061.46 711.11 1070.24ZM156.226 1035.17C154.779 1032.24 154.169 1029.36 153.65 1026.17C153.255 1023.74 152.206 1020.32 153.125 1017.16C154.154 1013.63 156.957 1010.47 158.97 1007.45C161.192 1004.12 163.412 1000.78 165.63 997.448C170.066 990.776 174.491 984.099 178.91 977.416C196.954 950.129 214.876 922.762 232.825 895.412C248.754 871.142 264.415 846.653 280.829 822.708C294.865 802.233 310.163 782.096 329.375 766.172C353.666 746.038 382.59 736.553 412.803 729.152C416.102 725.726 420.51 723.855 425.221 724.234C431.877 716.683 437.167 711.408 439.565 701.805C440.714 697.206 440.354 684.282 444.832 681.56C450.152 678.327 452.93 682.606 454.397 687.429C459.304 703.565 453.671 725.26 440.708 741.423C446.17 760.305 453.411 787.14 466.329 802.266C480.161 818.464 499.291 823.506 519.931 823.838C559.293 824.471 598.613 809.838 628.636 784.476C637.762 776.769 646.237 768.16 653.904 759.004C659.656 752.135 666.459 741.534 670.958 733.521C670.958 730.399 674.644 727.134 637.123 724.611C599.602 722.088 596.757 670.696 595.923 663.701C595.245 658.022 592.361 649.206 596.362 644.575C598.06 642.609 601.545 642.292 603.697 643.628C607.757 646.15 609.09 652.598 610.367 656.977C612.154 663.111 617.998 701.183 629.072 705.591C634.256 707.654 640.202 707.693 645.686 708.074C652.458 708.547 659.244 708.893 665.989 709.682C668.477 709.972 671.19 710.777 673.645 710.801C675.242 710.816 676.889 710.04 678.433 709.495C683.642 707.653 688.847 709.035 694.214 709.756C741.664 716.135 790.522 730.694 830.995 756.89C866.668 779.979 891.8 813.184 908.384 852.008C925.305 891.628 935.003 934.473 943.131 976.651C945.854 990.782 948.232 1004.98 950.275 1019.23C952.249 1032.99 954.718 1047.06 955.31 1060.97C955.544 1066.47 954.229 1071.58 952.206 1076.61C949.929 1082.26 944.545 1084.49 939.381 1087.14C928.045 1092.94 916.086 1097.43 903.766 1100.62C896.239 1114.32 889.905 1128.55 884.814 1143.32C886.703 1147.06 886.742 1152.65 887.105 1156.29C888.006 1165.35 888.392 1174.46 888.472 1183.56C888.635 1201.8 887.538 1220.02 886.679 1238.23C885.807 1256.7 882.91 1329.58 882.438 1338.48C882.07 1345.39 882.565 1355.06 878.924 1361.2C873.329 1370.64 859.521 1370.32 853.125 1362.67C694.214 1396.84 395.507 1386.55 275.203 1369.35C259.55 1367.12 264.465 1369.6 260.484 1365.64C257.497 1362.67 254.955 1357.58 254.129 1353.5C253.025 1348.04 254.807 1343.1 257.93 1338.68C261.214 1334.04 261.812 1326.52 263.032 1321C265.916 1307.96 267.349 1250.65 268.697 1244.3C269.117 1242.32 269.523 1240.23 270.014 1238.13C247.946 1240.22 224.952 1240.22 203.958 1232.84C192.053 1228.65 180.951 1222.08 172.404 1212.69C162.056 1201.32 156.298 1187 153.338 1172.06C149.517 1152.8 148.706 1132.84 149.457 1113.26C150.5 1090.11 154.337 1066.64 163.862 1045.39C160.728 1042.48 158.101 1038.97 156.226 1035.17Z" fill="black"/>
<path fill-rule="evenodd" clip-rule="evenodd" d="M535.099 195.73C532.27 192.523 527.912 193.623 525.267 196.159C523.545 196.667 521.876 197.421 520.301 198.421C516.74 197.963 513.006 197.963 509.514 198.092C508.666 197.616 507.758 197.193 506.77 196.83C499.708 194.248 493.454 195.56 488.296 199.017C485.812 196.666 482.677 195.19 478.67 195.413C475.094 195.613 472.546 197.296 470.362 199.513C468.184 196.372 464.663 194.131 460.277 193.819C454.146 193.383 448.253 195.842 443.368 199.65C440.522 196.384 436.643 194.507 432.319 194.489C429.474 193.972 426.472 194.176 423.759 194.996C419.821 196.185 416.363 198.414 413.609 201.308C409.252 197.134 403.918 194.131 397.768 194.569C389.809 195.144 383.211 200.998 380.145 208.203C374.758 210.362 369.784 213.44 365.628 217.83C365.406 218.061 365.194 218.303 364.972 218.547C362.733 219.373 360.624 220.545 358.768 222.088C352.887 226.983 351.575 234.067 353.522 241.009C353.25 242.12 353.018 243.25 352.806 244.379C347.298 245.217 342.294 248.397 339.45 253.574C335.556 260.678 336.322 270.042 340.539 276.824C342.352 279.741 344.653 282.2 347.238 284.349C344.315 290.989 345.717 298.913 350.429 304.284C351.577 306.135 352.987 307.806 354.573 309.319C352.822 316.184 355.935 323.267 362.15 326.936L362.681 328.266C362.77 328.488 362.861 328.708 362.955 328.926C363.023 329.208 363.108 329.482 363.192 329.757C363.34 332.193 364.142 334.584 365.734 336.836C368.993 341.452 373.033 344.462 375.174 349.851L375.389 350.417C376.31 352.967 379.284 354.766 381.818 353.979C367.748 382.882 360.372 415.042 355.308 446.559C352.783 462.283 350.834 478.06 349.254 493.899L347.704 509.671C346.34 523.69 345.127 537.756 345.119 551.822C345.099 583.641 354.198 614.247 373.729 639.567C392.2 663.502 418.338 680.849 447.866 687.681C478.352 694.725 514.114 691.95 541.452 675.824C549.513 671.082 542.451 659.678 534.249 663.493C518.724 670.719 502.946 676.087 485.736 677.288C468.96 678.468 452.143 676.369 436.234 670.879C409.914 661.788 387.519 642.746 373.123 619.031C366.032 607.344 360.897 594.66 358.163 581.258C354.76 564.554 355.272 547.289 356.523 530.371L356.609 529.218C359.081 496.622 362.339 463.825 367.605 431.554C372.26 403.017 379.417 375.058 388.709 347.718C392.349 344.513 396.421 341.861 400.778 339.846C432.683 338.513 464.646 338.903 496.51 341.105C523.685 342.995 550.729 346.193 577.568 350.854L580.442 351.359C586.384 352.417 592.982 353.023 598.581 355.415C603.383 357.474 605.33 361.43 606.54 366.293C609.587 378.594 610.051 392.057 610.565 404.671C611.07 417.002 609.93 429.435 610.918 441.725C611.756 452.008 614.389 462.534 622.005 469.972C625.99 473.866 630.893 475.996 635.493 478.952C638.469 480.861 639.73 482.827 639.346 486.359C638.519 494.089 632.295 503.827 639.286 510.447C640.517 511.608 642.645 511.759 643.856 510.447C646.741 507.31 650.726 504.917 654.146 502.384C655.578 501.336 654.388 499.297 652.764 500.023C650.625 500.983 648.446 502.113 646.216 503.102C651.139 499.045 658.14 497.056 663.971 495.875C666.907 495.29 669.994 495.119 673.051 495.392C675.31 496.471 677.62 497.471 679.931 498.449C682.866 499.681 685.832 500.8 688.818 501.861C699.179 510.306 704.122 524.041 701.963 537.473C700.783 544.889 697.363 552.953 690.916 557.282C683.28 562.409 673.051 560.208 664.799 564.013C657.071 567.574 652.37 574.77 648.849 582.218L647.382 585.319C644.114 592.183 640.755 598.866 636.29 605.114C631.125 612.35 624.799 618.848 617.899 624.43C614.552 627.131 610.984 629.561 607.296 631.774L606.288 632.372C602.555 634.562 599.882 636.649 599.63 641.281C599.549 642.896 600.568 644.369 601.879 645.207C607.529 648.789 613.148 644.309 617.849 641.18C622.923 637.81 627.775 634.017 632.265 629.879C640.799 622.028 648.184 612.704 653.863 602.581C658.191 594.872 660.652 584.024 667.492 578.05C671.668 574.406 677.57 574.377 682.785 573.71C687.638 573.085 692.228 572.076 696.546 569.684C714.109 559.926 719.072 536.302 714.906 518.047C714.2 514.968 713.211 511.971 711.99 509.085C718.527 510.175 725.871 503.415 723.218 496.592C723.017 496.077 722.785 495.594 722.563 495.098C726.87 492.263 730.27 487.965 731.884 482.343C732.711 479.437 732.832 476.5 732.398 473.664C734.487 472.263 736.212 470.334 737.321 467.963C740.792 466.358 743.868 463.958 745.705 460.527C748.247 455.793 747.924 451.433 745.987 447.508C746.259 447.014 746.522 446.51 746.774 445.994C753.886 441.484 758.849 433.713 758.284 425.095C758.103 422.239 757.397 419.666 756.307 417.346C756.398 417.053 756.489 416.749 756.569 416.457C762.521 413.429 767.444 408.455 769.2 401.815C770.955 395.134 768.887 388.473 764.751 383.347C770.804 378.918 774.445 372.732 772.236 363.376C771.338 359.573 769.532 356.111 767.091 353.194C767.101 353.104 767.121 353.014 767.142 352.922L767.708 352.482C775.18 346.584 779.476 339.067 774.889 329.823C772.831 325.666 769.896 322.769 766.445 320.862L766.274 320.317V320.317C768.746 315.019 769.583 309.135 767.878 302.95C766.486 297.854 763.187 293.797 758.97 291.103C759.253 288.822 759.212 286.391 758.758 283.756C758.002 279.307 755.793 275.421 752.564 272.666C752.443 272.08 752.292 271.506 752.12 270.93C751.031 267.409 748.993 263.584 746.633 260.748C744.686 258.396 742.507 257.539 739.843 257.448C740.005 255.279 739.894 253.078 739.45 250.848C738.088 243.967 733.71 237.497 727.223 234.561C724.56 233.36 721.756 233.008 719.052 233.299C716.752 228.455 712.263 224.945 706.745 224.188C704.596 223.885 702.598 223.904 700.762 224.178C699.723 223.692 698.644 223.259 697.514 222.865C696.767 222.602 696.011 222.36 695.254 222.119C692.702 218.95 689.343 216.416 685.418 214.894C680.889 213.128 676.279 213.308 672.193 214.792L670.892 214.519V214.519C668.854 210.987 665.606 208.253 660.612 207.011C654.943 205.609 649.122 207.566 644.663 211.13C644.643 211.13 644.622 211.13 644.592 211.118C642.262 205.901 638.277 202.268 631.589 202.521C627.422 202.682 623.66 204.752 620.754 207.698C619.14 207.496 617.526 207.314 615.902 207.133C614.187 205.124 612.28 203.248 610.172 201.563C606.722 198.797 602.233 199.02 599.69 202.914C599.136 203.762 598.621 204.62 598.107 205.477L595.776 205.316V205.316C593.032 201.612 589.29 199.11 584.165 198.909C579.464 198.716 576.115 201.018 573.562 204.236C571.484 204.186 569.396 204.146 567.308 204.115C564.877 201.3 562.012 198.817 558.743 196.758C556.241 195.184 552.549 195.72 550.521 197.819C549.151 199.246 547.876 200.735 546.691 202.277C543.635 198.85 539.508 196.593 535.099 195.73ZM683.572 516.18C678.861 513.495 672.526 516.402 667.966 518.682C662.408 521.458 656.89 525.645 653.49 530.893C648.859 538.038 659.744 543.81 664.617 537.402C667.613 533.456 670.004 529.48 673.636 526.029C676.955 522.86 681.767 520.741 683.673 516.563C683.744 516.422 683.724 516.261 683.572 516.18ZM680.263 342.76L680.175 342.508C678.835 338.841 684.682 337.261 686.011 340.897C688.024 346.408 685.703 352.399 680.261 354.779C678.753 355.439 677.03 355.209 676.121 353.693C675.358 352.416 675.712 350.204 677.207 349.551C680.268 348.212 681.294 345.848 680.263 342.76V342.76ZM730.634 332.508C727.707 329.925 732.002 325.655 734.914 328.227C737.632 330.627 739.648 333.886 739.124 337.635C738.59 341.456 735.71 344.153 732.558 346.06C729.217 348.081 726.171 342.848 729.503 340.831L729.877 340.602C731.276 339.733 732.913 338.539 733.15 336.829C733.401 335.013 731.865 333.595 730.634 332.508ZM714.022 286.924L713.814 286.771C710.671 284.527 713.69 279.273 716.87 281.543C719.785 283.625 722.124 286.329 722.37 290.059C722.609 293.684 720.765 296.826 718.354 299.376C715.671 302.213 711.396 297.926 714.073 295.095C716.682 292.337 717.192 289.326 714.022 286.924V286.924Z" fill="black"/>
<path fill-rule="evenodd" clip-rule="evenodd" d="M437.778 611.695C445.21 613.848 453.186 614.04 460.761 611.817C467.632 609.8 474.687 605.361 479.744 599.487C484.236 594.27 487.145 587.929 487.031 581.16C487.018 580.387 486.742 579.742 486.316 579.241C485.859 578.702 485.22 578.332 484.535 578.171C483.831 578.006 483.087 578.064 482.453 578.352C481.879 578.613 481.387 579.056 481.08 579.703C480.303 580.725 479.529 581.731 478.752 582.709C472.503 590.427 466.452 596.195 457.056 598.264C451.958 599.386 446.867 598.889 442.195 597.176C437.194 595.342 432.674 592.118 429.131 587.993C427.53 586.128 425.64 585.367 423.792 585.354C421.698 585.34 419.628 586.313 418.068 587.869C416.535 589.399 415.509 591.477 415.416 593.651C415.334 595.559 415.957 597.552 417.612 599.331C423.065 605.188 430.132 609.479 437.778 611.695ZM438.008 515.028C430.39 519.66 418.782 530.461 426.977 541.944C436.624 552.069 450.512 540.46 457.356 535.21C463.703 531.141 470.833 541.606 464.945 546.357C415.49 582.984 395.42 516.239 434.155 509.582C438.419 508.848 440.003 513.595 438.008 515.028ZM509.269 494.647C511.717 493.08 514.597 492.543 517.789 493.995C520.284 495.13 524.659 498.913 527.703 503.885C529.786 507.287 531.263 511.278 530.956 515.436C530.885 516.401 531.241 517.113 531.804 517.639C532.248 518.055 532.89 518.36 533.643 518.456C534.283 518.537 535 518.464 535.582 518.282C536.69 517.936 537.276 517.217 537.497 516.63C539.629 510.967 538.71 504.647 536.321 498.945C533.097 491.251 527.241 484.805 523.405 482.727C516.84 479.17 509.095 479.006 502.521 482.63C496.924 485.714 493.425 490.694 489.945 495.77C489.205 496.849 488.471 497.92 487.712 498.972C486.191 501.081 486.04 503.172 486.629 504.965C487.281 506.952 488.945 508.629 491.025 509.506C492.948 510.317 495.18 510.431 497.155 509.598C498.823 508.894 500.354 507.522 501.323 505.194C502.955 501.273 505.673 496.947 509.269 494.647V494.647ZM384.918 503.37C386.595 504.244 387.907 504.507 389.767 503.95C390.795 503.641 391.812 503.048 392.608 502.252C393.397 501.463 393.966 500.482 394.187 499.393C394.731 496.707 396.201 494.192 398.295 492.552C400.085 491.151 402.344 490.408 404.85 490.827C407.554 491.279 410.13 493.014 411.904 495.059C412.497 495.743 412.962 496.521 413.429 497.293C414.304 498.736 415.153 500.078 416.359 501.139C416.816 501.542 417.505 501.821 418.172 501.821C418.443 501.821 418.718 501.777 418.98 501.696C421.672 498.993 422.189 496.944 422.102 494.91C422.011 492.778 421.171 490.62 419.813 488.605C416.628 483.881 410.58 480.007 406.498 479.129C400.909 477.928 395.358 479.37 390.908 482.493C386.329 485.706 382.936 490.695 381.878 496.317C381.623 497.671 381.732 499.132 382.247 500.399C382.751 501.638 383.629 502.698 384.918 503.37ZM496.942 444.273C500.296 447.542 504.266 448.049 508.282 448.499C510.514 448.752 512.295 448.955 514.048 449.351C518.867 450.439 523.63 452.078 527.975 454.438C532.517 456.905 537.467 459.88 541.029 463.692C541.875 464.599 542.674 465.55 543.473 466.504C544.202 467.374 544.904 468.211 545.644 469.019C546.494 469.946 547.301 470.918 548.104 471.887C548.6 472.705 548.698 472.906 548.798 473.116C548.949 473.431 549.124 473.783 549.323 474.161C549.597 474.678 549.918 475.244 550.253 475.758C550.812 476.697 551.112 476.955 551.371 477.071C551.801 477.262 552.208 477.357 552.604 477.306C552.974 477.258 553.324 477.079 553.669 476.788C555.391 475.332 555.899 472.944 555.847 470.408C555.768 466.561 554.349 462.301 553.041 459.682C550 453.597 545.783 447.272 540.712 442.73C534.925 437.547 528.595 433.622 521.323 430.918C516.804 429.237 511.572 427.694 506.649 427.889C503.106 428.029 499.723 429.083 496.929 431.714C495.214 433.329 494.39 435.627 494.39 437.923C494.39 440.265 495.246 442.62 496.942 444.273ZM378.096 474.209C378.309 474.559 378.605 474.8 378.933 474.945C379.278 475.096 379.662 475.14 380.031 475.078C380.398 475.016 380.747 474.849 381.024 474.595C381.29 474.351 381.492 474.027 381.582 473.631C383.809 463.847 388.133 456.567 397.363 451.873C401.903 449.564 407.124 448.097 412.066 446.927C413.502 446.587 415.02 446.366 416.548 446.143C421.337 445.444 426.162 444.643 429.284 440.77C431.166 438.437 431.955 435.453 431.509 432.725C431.088 430.156 429.588 427.8 426.86 426.389C420.068 422.876 411.628 426.323 404.769 429.259C404.26 429.477 403.761 429.691 403.272 429.897C396.565 432.729 390.448 436.467 385.419 441.813C381.429 446.055 377.733 452.325 376.244 458.775C375.005 464.141 375.297 469.619 378.096 474.209Z" fill="black"/>
<path fill-rule="evenodd" clip-rule="evenodd" d="M382.529 439.982C358.85 439.982 345.338 445.075 340.386 445.472L340.237 445.483C338.178 445.615 336.33 445.787 334.392 446.537C327.264 449.283 326.103 456.761 330.262 461.474C330.554 471.226 329.272 482.62 331.472 492.404C334.186 533.648 353.576 540.608 364.598 543.148C370.131 544.424 376.69 544.932 382.567 543.585C392.595 543.211 402.508 540.071 410.989 534.603C422.802 526.982 431.575 515.269 434.422 501.367C435.772 494.741 436.402 487.844 435.668 481.108L435.559 480.18C439.398 478.343 443.848 477.995 448.434 477.833C450.625 477.755 452.785 477.685 454.883 477.779C456.933 478.008 458.959 478.313 460.992 478.728C463.211 479.398 465.307 480.503 467.242 482.254L467.375 484.81C467.739 491.194 468.577 497.597 469.869 503.86C471.777 513.101 474.846 521.927 481.378 528.482C483.589 531.785 486.325 534.734 489.647 537.287C501.713 546.58 518.105 549.992 533.15 548.707C563.694 546.1 581.348 521.846 585.417 511.479L585.66 510.851C588.599 503.144 590.942 493.143 600.229 491.488L602.204 491.133C606.442 490.337 610.353 489.229 612.838 485.093C613.927 483.287 614.487 481.267 614.625 479.208C616.074 479.32 617.522 479.426 618.965 479.53C630.474 481.964 699.504 484.029 705.013 484.029C705.013 484.029 715.605 488.488 720.077 485.033C723.176 482.63 724.196 479.428 722.49 475.801C719.915 470.343 708.038 467.06 702.764 466.02C702.764 466.02 617.657 466.727 611.531 465.565C607.741 461.656 600.962 462.191 595.297 461.573C590.607 458.228 584.047 455.988 578.865 454.488C577.809 454.088 576.763 453.701 575.746 453.336C566.246 449.952 556.371 448.159 546.346 447.196C536.007 446.213 525.639 446.658 515.361 448.067C511.03 448.654 506.739 449.414 502.479 450.409C494.85 451.415 487.266 453.072 479.634 455.037L478.107 455.434C470.071 457.542 461.812 459.365 453.493 457.936C446.721 456.781 440.208 454.173 433.963 451.354L433.15 450.985C419.42 444.714 397.977 439.982 382.529 439.982ZM503.305 462.912C508.371 461.797 510.534 469.61 505.452 470.728C501.853 471.52 498.803 473.335 496.742 476.411L496.525 476.745C493.76 481.147 486.768 477.084 489.552 472.653C492.685 467.668 497.553 464.176 503.305 462.912ZM354.924 458.067C356.71 456.808 359.412 457.743 360.449 459.521C361.59 461.479 360.842 463.66 359.17 464.941L359 465.066C357.465 466.148 355.971 468.087 355.783 470.073L355.767 470.322C355.566 475.521 347.488 475.547 347.69 470.322C347.887 465.21 350.846 460.939 354.924 458.067Z" fill="black"/>
</svg>
