<svg width="1146" height="1547" viewBox="0 0 1146 1547" fill="none" xmlns="http://www.w3.org/2000/svg">
<path fill-rule="evenodd" clip-rule="evenodd" d="M452.538 662.092C451.41 666.923 452.44 672.369 452.252 677.327C452.072 682.065 451.513 686.776 450.69 691.444C442.032 686.889 431.801 686.304 421.935 687.77C409.173 689.667 394.405 693.865 384.403 702.394C381.933 704.501 379.887 706.996 378.174 709.746C376.118 713.046 374.806 716.773 371.546 719.138C366.504 722.796 360.254 724.212 355.407 728.265C350.464 732.398 347.397 738.576 346.748 744.951C346.402 748.345 346.962 751.518 347.606 754.828C348.183 757.806 347.899 759.028 347.115 761.895C346.5 764.145 347.674 766.699 349.589 767.94C345.484 770.759 341.435 773.664 337.456 776.688C314.275 794.287 294.673 816.225 281.084 842.039L280.756 842.68L280.375 843.451C277.064 850.256 268.399 870.153 267.323 874.626C266.553 876.962 265.808 879.307 265.115 881.667C263.285 887.92 261.733 894.25 260.446 900.633L260.102 902.375C259.058 907.735 257.261 914.085 257.551 919.799C254.541 935.398 251.875 951.063 249.599 966.793C249.302 968.854 250.122 970.528 251.395 971.639C248.351 972.128 245.327 972.73 242.336 973.336L240.598 973.702L239.729 973.894C233.499 975.299 227.351 977.346 223.271 982.58C218.871 988.242 218.781 995.518 223.2 1001.22C226.952 1006.06 232.431 1008.36 238.15 1009.82C239.279 1010.1 240.42 1010.36 241.56 1010.59C242.326 1010.75 242.83 1009.71 242.105 1009.3L240.891 1008.63L239.235 1007.72C234.923 1005.35 230.448 1002.66 228.062 998.374C224.823 992.551 227.386 987.161 232.945 984.206C237.598 981.728 243.354 981.093 248.522 980.247L250.655 979.894C256.058 979.031 261.569 978.471 267.021 979.088C271.793 979.633 276.625 981.259 280.48 984.174L280.837 984.455L281.205 984.765C284.586 987.695 289.446 994.277 283.071 996.174C278.199 997.615 272.262 997.257 267.141 997.536L266.478 997.577C262.19 997.869 257.71 997.869 253.373 998.384C251.82 998.564 250.285 998.817 248.782 999.171C244.475 1000.19 245.958 1005.92 249.752 1006.33C250.68 1006.43 251.627 1006.48 252.576 1006.5C255.058 1008.36 258.488 1009.21 261.422 1010.37C264.227 1011.48 267.042 1012.58 269.876 1013.66C267.435 1013.77 264.994 1013.97 262.562 1014.28C261.777 1014.37 261.766 1015.43 262.562 1015.51C268.415 1016.1 274.266 1016.75 280.096 1017.57C289.124 1018.82 298.093 1020.49 306.859 1023.05C313.266 1024.92 319.595 1027.15 325.734 1029.75L327.591 1030.55L328.357 1030.89C333.928 1033.3 341.136 1036.13 344.337 1041.45C346.012 1044.23 346.747 1048.52 344.386 1051.17C341.862 1054.03 336.574 1053.7 333.038 1053.84L332.755 1053.86C325.27 1054.22 317.775 1054.27 310.28 1054.01C294.573 1053.45 278.855 1051.74 263.43 1048.72C260.585 1048.16 259.354 1052.43 262.219 1053.1C280.414 1057.33 298.808 1059.65 317.476 1059.76L319.52 1059.76C326.792 1061.15 333.924 1063.22 340.996 1065.56L342.409 1066.04C346.586 1067.45 353.718 1068.85 356.18 1073C357.814 1075.75 357.24 1077.64 355.624 1078.92C352.781 1081.17 346.728 1081.6 343.782 1081.71C331.979 1082.15 320.166 1082.23 308.353 1081.98C302.45 1081.85 296.549 1081.64 290.648 1081.33C284.877 1081.03 278.714 1080.17 272.964 1080.73C270.492 1080.97 269.664 1084.6 272.348 1085.28C279.439 1087.08 287.392 1086.92 294.719 1087.15L295.561 1087.18C303.43 1087.46 311.308 1087.58 319.176 1087.56C325.931 1087.53 332.683 1087.4 339.43 1087.15L345.395 1086.91L346.451 1086.86C349.63 1086.69 352.877 1086.33 355.695 1085.02C358.298 1089.38 356.352 1095.22 352.993 1098.67C349.795 1101.96 345.183 1103.58 340.766 1104.58C340.351 1104.68 339.938 1104.77 339.524 1104.85C329.819 1106.82 319.933 1106.65 310.854 1111.11C303.218 1114.87 296.226 1121.12 287.673 1122.61C280.026 1123.94 274.467 1120.57 270.392 1114.33C270.169 1113.99 269.947 1113.65 269.735 1113.3C266.528 1108.14 264.218 1102.45 260.837 1097.38C259.112 1094.8 257.165 1092.31 254.785 1090.3C253.716 1089.38 246.231 1085.4 245.06 1084.21C240.026 1079.04 244.485 1068.18 243.173 1061.7C241.641 1054.16 235.012 1051.5 231.037 1045.66C223.482 1034.54 244.203 1024.13 238.008 1011.97C237.927 1011.82 237.828 1011.7 237.696 1011.63C237.152 1011.34 236.283 1011.7 236.334 1012.42C237.021 1021.48 228.384 1027.72 225.267 1035.57C221.717 1044.5 227.386 1049.91 233.176 1055.87C240.602 1063.53 235.376 1072.11 237.03 1081.33C237.246 1082.54 237.593 1083.61 238.043 1084.56C236.774 1085.35 235.796 1086.65 235.581 1088.47C233.035 1110.07 230.298 1131.6 225.829 1152.9L224.873 1157.42L223.592 1163.46C220.407 1178.55 217.434 1193.71 216.869 1209.15C215.094 1222.17 214.39 1235.3 215.441 1248.42C218.629 1288.33 240.935 1330.09 281.458 1342.34C290.839 1345.17 300.787 1345.91 310.411 1343.92C313.709 1343.24 318.329 1341.75 322.476 1339.49C322.229 1342.15 322.033 1344.81 321.952 1347.46C320.585 1348.99 319.967 1351.29 320.745 1353.25C324.05 1352.16 327.054 1350.44 329.759 1348.09L330.207 1347.69C331.81 1341.73 332.279 1335.2 332.512 1328.93L332.573 1327.14C332.635 1325.4 332.674 1323.7 332.736 1322.03C333.078 1311.67 332.836 1301.29 332.302 1290.93L331.909 1283.31C331.007 1265.53 330.274 1247.8 330.768 1229.97C331.333 1209.45 333.088 1189.03 335.287 1168.62C336.428 1158.1 337.718 1147.59 339.041 1137.09C340.099 1128.63 341.875 1119.53 341.905 1110.81C348.695 1109.36 355.362 1106.57 359.54 1100.87C363.968 1094.83 364.623 1087.1 360.69 1080.9C364.492 1075.69 361.375 1070.79 356.674 1067.48C363.897 1063.43 367.922 1052.39 368.991 1044.71C369.718 1039.44 369.949 1031.56 367.701 1025.64C370.928 1025.75 374.156 1026.08 377.384 1026.64C381.118 1027.3 384.779 1028.25 388.391 1029.44L390.22 1030.05C391.143 1030.36 392.182 1030.72 393.213 1031.15C386.686 1041.95 395.07 1051.74 405.824 1054.53C407.87 1055.07 409.959 1055.44 412.067 1055.74C416.818 1056.4 421.672 1056.6 426.383 1057.03C435.401 1057.86 444.47 1059.04 453.519 1059.43C455.507 1059.52 456.787 1058.59 457.394 1057.3C457.413 1057.28 457.423 1057.27 457.423 1057.25C457.635 1056.9 457.777 1056.54 457.827 1056.16C457.796 1056.19 457.756 1056.21 457.726 1056.23C458.16 1053.8 456.707 1050.86 453.519 1050.51C440.455 1049.03 427.21 1048.96 414.106 1047.88L413.266 1047.81C409.153 1047.46 404.308 1046.8 401.051 1044.2C398.024 1041.78 397.753 1038.63 398.964 1035.78C398.984 1035.85 399.003 1035.93 399.014 1036C399.105 1036.57 399.881 1036.55 400.133 1036.15C400.889 1035.01 401.082 1033.87 400.889 1032.78C401.798 1031.74 402.897 1030.81 404.087 1030.09C409.364 1026.88 416.304 1026 422.307 1025.05C428.874 1024.02 435.491 1023.54 442.119 1023.23C455.163 1022.61 468.248 1023.67 481.079 1026.01C481.615 1026.1 481.836 1025.36 481.311 1025.19C476.309 1023.53 471.194 1022.14 466.019 1021.04C466.14 1021.02 466.26 1021 466.381 1020.97C466.835 1020.86 467.159 1020.3 467.006 1019.86C466.987 1019.79 466.956 1019.72 466.926 1019.66C469.126 1018.65 470.043 1015.26 467.38 1013.88C459.078 1009.6 449.333 1007.66 440.223 1005.89C431.476 1004.21 422.64 1003.02 413.792 1001.98C398.832 1000.22 382.519 1000.26 368.125 995.537L367.533 995.338C361.67 993.316 354.672 989.218 354.263 982.298C353.658 971.833 369.204 974.558 375.68 974.81C393.404 975.487 411.109 976.718 428.753 978.615C432.355 978.998 435.956 979.391 439.557 979.796C445.075 980.41 450.603 981.057 456.111 981.742C459.188 982.127 462.336 982.631 465.503 983.116C466.492 983.358 467.46 983.529 468.429 983.62C468.5 983.629 468.56 983.61 468.61 983.58C473.221 984.226 477.851 984.719 482.35 984.579C482.866 984.569 483.188 983.76 482.643 983.518C476.832 981.057 470.366 979.604 463.88 978.463C459.864 975.466 455.013 973.065 451.027 970.744C445.559 967.555 439.295 962.862 433.09 960.955C430.297 958.755 427.129 956.989 424.213 955.788C425.05 954.487 425.353 952.679 425.203 951.156C424.647 945.697 420.279 942.648 415.235 941.579C413.671 941.257 411.865 941.015 409.938 940.924C409.899 939.905 409.445 938.906 408.436 938.159L408.138 937.933L407.927 937.764C404.541 935.014 397.819 927.27 405.914 926.705C410.211 926.401 413.843 929.551 417.263 931.68C424.365 936.11 431.234 936.331 439.345 935.231L442.991 934.708L443.597 934.626C449.461 933.857 455.41 933.75 458.684 939.732C462.195 946.131 463.425 951.964 470.508 955.486C477.276 958.846 484.792 959.512 491.006 964.134C497.665 969.078 502.669 976.02 508.115 982.176C520.13 995.739 533.88 1007.72 548.044 1018.98L550.563 1020.98C563.607 1031.29 577.071 1041.44 591.674 1049.39C591.775 1049.43 591.877 1049.46 591.967 1049.46C592.36 1049.42 592.654 1048.91 592.3 1048.57C575.241 1031.99 555.287 1018.55 537.765 1002.41C529.997 995.256 522.603 987.726 515.49 979.917C509.276 973.065 503.768 965.365 496.524 959.532C493.004 956.696 489.2 954.527 484.944 953.013C480.968 951.589 476.509 950.883 472.847 948.703C465.675 944.446 466.371 934.354 459.198 929.772C453.048 925.842 445.556 927.278 438.738 928.211L437.923 928.32C433.504 928.905 428.934 929.4 424.717 927.654C420.542 925.928 417.183 922.699 412.976 920.983C407.114 918.572 398.802 919.147 395.795 925.595C392.921 931.751 396.844 937.321 401.424 941.408C395.181 942.538 389.702 945.556 389.238 951.711C384.658 951.559 380.088 951.398 375.509 951.237C359.559 950.682 343.53 949.611 327.57 949.895C327.934 948.269 328.095 946.594 328.115 944.89C328.125 943.941 328.084 942.993 328.015 942.024C327.893 940.368 326.804 939.369 325.189 939.197L321.584 938.813L320.378 938.693C313.625 938.054 306.073 937.92 300.927 942.386C298.163 944.799 295.934 950.349 297.285 954.053C294.139 955.132 291.142 956.514 288.408 958.261C282.991 956.443 277.301 956.646 271.855 958.542L271.207 958.774C267.335 960.196 261.847 962.889 259.743 966.731C264.85 932.1 271.733 897.764 280.386 863.843C285.909 850.297 292.888 837.349 301.351 825.398C322.667 795.286 353.376 774.578 380.956 750.773C383.389 753.452 386.01 756.001 388.462 758.454L389.501 759.5C394.495 764.559 399.703 769.4 405.027 774.107C416.153 783.946 427.864 793.027 439.491 802.254C462.931 820.855 484.123 840.607 501.755 864.892C502.071 865.33 502.95 865.074 502.705 864.492C490.611 835.735 465.541 813.872 442.766 793.585C430.789 782.918 418.532 772.508 407.017 761.337C401.649 756.129 396.448 750.741 391.542 745.093L390.321 743.676C387.113 739.92 379.602 728.452 374.637 736.726C373.597 738.457 373.643 740.671 374.637 742.403C376.048 744.866 377.838 747.214 379.796 749.469C372.836 753.256 366.018 757.256 359.35 761.489C359.733 759.45 359.637 757.195 359.281 754.94L359.165 754.223L358.679 751.426C357.982 747.302 357.624 743.469 360.24 739.447C363.51 734.415 369.677 732.846 374.59 729.938C380.249 726.588 383.205 722.106 386.236 716.416C392.039 705.525 405.15 701.157 416.419 697.653L417.837 697.213C428.25 693.985 439.514 692.257 449.925 695.36C448.949 699.907 447.671 704.389 446.074 708.756C444.374 713.404 440.491 718.572 440.888 723.592C441.163 727.066 445.329 730.78 448.786 728.125C453.683 724.367 454.662 718.247 455.974 712.416C457.243 706.777 458.053 701.001 458.398 695.231C458.73 689.671 458.471 684.115 457.785 678.593L457.26 674.537L457.132 673.595C456.56 669.496 455.709 665.193 453.404 661.979C453.182 661.671 452.639 661.664 452.538 662.092ZM594.607 639.041C594.533 639.369 594.482 639.693 594.435 640.017C594.098 641.399 593.972 642.728 594.014 644.063C593.993 644.545 594.029 645.027 594.119 645.504C594.299 647.076 594.677 648.688 595.189 650.451C596.277 654.202 597.524 657.908 598.917 661.558C601.671 668.776 604.923 675.663 608.942 682.265C616.202 694.19 625.432 704.089 636.313 712.645C634.248 714.349 632.229 716.122 630.206 717.863C620.43 726.279 610.918 735.077 601.705 744.107C585.343 760.145 569.31 776.481 553.653 793.208C545.931 801.458 538.352 809.815 530.814 818.229L530.567 818.513L530.3 818.831C527.623 822.069 522.273 829.791 518.281 828.551C516.265 827.923 514.143 824.915 512.769 823.48L510.238 820.84C509.397 819.958 508.56 819.07 507.739 818.17C493.014 802.032 479.082 785.274 466 767.759C459.616 759.212 453.445 750.506 447.498 741.647C444.441 737.093 441.441 732.499 438.502 727.866C435.659 723.385 433.36 718.57 429.17 715.225C426.095 712.771 421.835 715.021 422.61 719.045C423.831 725.381 428.215 730.74 431.667 736.095C435.134 741.477 438.683 746.806 442.312 752.079C449.296 762.231 456.582 772.169 464.129 781.907C470.628 790.293 477.409 798.464 484.373 806.47L486.277 808.649C493.767 817.191 501.119 826.259 509.396 834.056C516.808 841.038 524.903 839.003 531.654 832.218C540.194 823.639 548.122 814.361 556.339 805.47C572.758 787.701 589.349 770.068 606.111 752.622L611.621 746.88C618.046 740.171 624.445 733.421 630.677 726.547L631.481 725.651C638.587 717.654 645.814 707.636 655.917 703.57C656.647 703.276 656.379 702.239 655.59 702.384C649.123 703.58 643.723 706.839 638.7 710.734C634.184 703.259 630.155 695.38 626.642 687.321L628.896 686.342C645.021 679.372 663.195 672.345 680.506 673.474C687.483 673.929 694.927 676.573 699.744 681.812C704.106 686.558 706.284 692.958 710.287 698.013C714.872 703.802 720.852 706.408 728.191 706.643L731.76 706.751C735.865 706.884 739.801 707.1 743.964 708.003C755.245 710.449 767.137 714.418 776.598 721.196C780.03 723.655 783.573 727.035 785.232 730.76C786.878 734.45 787.351 738.768 787.511 742.751C787.589 744.693 787.007 747.257 787.493 749.115C787.437 748.902 787.412 749.015 787.405 749.237C785.893 750.43 784.863 752.413 784.751 754.389C775.321 749.472 765.559 745.163 755.607 741.279C744.526 736.955 733.101 733.49 721.675 730.208C710.491 726.998 698.785 725.67 687.384 723.381C685.933 723.089 685.428 725.05 686.781 725.571C698.764 730.175 710.358 735.632 722.44 739.963C734.517 744.293 746.503 748.98 758.23 754.189C780.895 764.261 802.789 777.077 820.646 794.465C838.086 811.449 851.539 832.081 864.05 852.825C876.65 873.715 887.895 895.366 897.918 917.606C917.745 961.603 932.612 1007.86 942.401 1055.11C951.927 1101.1 957.249 1148.72 955.477 1195.72C954.635 1218.04 951.91 1240.38 945.57 1261.85C942.542 1272.1 938.751 1282.13 933.961 1291.69C928.91 1301.78 922.105 1310.77 917.492 1321.03C917.113 1321.87 916.968 1322.68 916.989 1323.43C897.317 1340.48 866.527 1328.99 845.237 1318.81C796.249 1295.38 748.17 1269.74 702.471 1240.31C657.367 1211.27 614.624 1178.86 572.89 1145.21C576.118 1141.88 578.964 1138.15 581.465 1134.77C586.63 1127.78 590.514 1119.87 593.187 1111.62C596.315 1101.95 597.284 1091.61 596.395 1081.51L596.143 1078.65C595.293 1069.11 594.311 1059.43 592.219 1050.11C592.2 1049.99 592.108 1049.94 592.007 1049.94C591.907 1049.94 591.805 1050 591.765 1050.11C586.126 1068.17 585.672 1087.57 579.338 1105.39C576.785 1112.56 572.831 1119.48 568.088 1125.42C566.041 1128 563.64 1130.23 561.189 1132.41C561.027 1131.3 560.806 1130.2 560.473 1129.12L560.209 1128.26C559.881 1127.22 559.474 1126.07 558.909 1125.05C559.706 1124.82 560.482 1124.57 561.249 1124.28C561.855 1124.06 561.986 1123.08 561.249 1122.92C559.241 1122.46 557.173 1122.22 555.065 1122.12C554.732 1122.07 554.41 1122.06 554.087 1122.08C550.142 1121.96 546.127 1122.24 542.324 1122.31C535.736 1122.41 529.169 1122.53 522.592 1122.82C510.002 1123.36 495.789 1125.78 483.399 1122.85C472.141 1120.19 461.044 1112.68 452.017 1105.61C444.128 1099.44 438.044 1092.1 431.498 1084.79C431.968 1084.86 432.434 1084.93 432.899 1084.99L437.12 1085.57C442.449 1086.28 448.775 1086.84 453.004 1084.28C454.619 1083.3 454.154 1081.08 452.51 1080.48C448.193 1078.89 442.835 1080.2 438.236 1079.98C434.625 1079.81 430.972 1079.43 427.411 1078.68C426.241 1078.44 425.082 1078.16 423.931 1077.82C415.498 1075.39 405.59 1066.83 412.289 1057.49C412.541 1057.14 412.26 1056.81 411.917 1056.75C411.764 1056.72 411.603 1056.75 411.472 1056.86C403.846 1063.18 407.811 1074.5 415.024 1079.36C417.504 1081.03 420.309 1082.2 423.214 1083.06C422.659 1084.08 422.56 1085.33 423.225 1086.52C428.874 1096.59 438.437 1105.44 447.396 1112.56C456.596 1119.86 467.208 1126.75 478.618 1129.98C491.794 1133.7 506.269 1130.9 519.636 1129.72C526.88 1129.09 534.102 1128.33 541.335 1127.49C543.273 1127.27 545.279 1127.1 547.318 1126.91C545.4 1129.43 543.877 1132.34 542.878 1134.08C539.63 1139.75 542.626 1147.22 548.921 1148.96C549.578 1149.14 550.254 1149.24 550.919 1149.26C552.614 1152.66 556.65 1155.16 560.382 1153.88C562.005 1153.33 563.57 1152.57 565.072 1151.66C588.548 1172.29 613.264 1191.64 638.684 1209.79C685.826 1243.43 735.238 1274.16 786.474 1301.17C798.015 1307.26 809.644 1313.18 821.371 1318.87L831.465 1323.74C842.638 1329.12 854.072 1334.47 865.937 1337.8C868.251 1338.46 870.673 1338.98 873.154 1339.38C873.187 1339.61 873.195 1339.82 873.18 1340.02C875.411 1340.32 877.358 1340.37 879.02 1340.16L879.399 1340.11C893.943 1341.12 909.5 1337.57 918.856 1326.95C920.416 1328.04 922.69 1328.16 924.696 1326.59C934.787 1318.67 940.803 1306.61 946.082 1295.09C951.435 1283.41 955.63 1271.24 958.713 1258.77C964.871 1233.87 967.313 1208.18 967.442 1182.57C967.907 1083.85 943.194 984.274 900.267 895.653C889.38 873.177 877.379 851.12 864.057 829.992C850.771 808.921 835.343 789.339 815.586 773.972C809.905 769.554 803.994 765.514 797.898 761.793C801.989 759.764 803.615 754.605 803.901 750.021C804.537 739.842 803.324 728.115 797.366 719.526C789.008 707.477 774.047 700.048 760.174 696.435C752.931 694.55 745.44 693.451 737.97 693.08C734.118 692.887 730.116 693.521 726.311 693.105C722.954 692.74 720.878 690.736 718.947 688.101C714.001 681.347 710.781 674.263 703.686 669.312C696.406 664.233 686.973 662.289 678.203 662.816C667.987 663.431 658.667 667.457 649.669 672.084C641.548 676.26 633.666 680.886 625.984 685.82C624.575 682.519 623.249 679.193 622.015 675.856C619.622 669.385 617.541 662.709 615.852 656.021C614.14 649.238 614.39 640.281 609.219 635.181C604.723 630.748 596.065 632.489 594.607 639.041ZM246.086 1091.6L246.123 1091.61C256.582 1097.81 261.584 1113.3 266.507 1120.07C266.104 1122.34 265.822 1124.66 265.267 1126.81C263.995 1131.74 262.331 1136.63 260.404 1141.34C257.014 1149.64 252.767 1157.55 248.843 1165.61C245.685 1172.08 242.591 1178.68 240.184 1185.49C240.445 1185.75 240.687 1186.06 240.891 1186.45C243.502 1191.34 245.546 1190.38 250.363 1189.31L250.366 1189.3C253.121 1180.87 257.095 1172.94 260.666 1164.85L261.534 1162.87L262.393 1160.9C265.377 1153.97 268.1 1146.98 269.686 1139.55C270.694 1134.82 271.108 1129.95 271.168 1125.12C273.78 1127.27 276.919 1128.81 280.872 1129.41C289.334 1130.69 296.997 1125.39 303.891 1121.13L305.445 1120.18C309.761 1117.56 314.04 1115.13 319.016 1113.89C324.665 1112.48 330.506 1112.48 336.245 1111.76C336.932 1111.67 337.627 1111.58 338.325 1111.47C336.085 1118.88 335.046 1126.94 333.713 1134.36C331.857 1144.78 330.344 1155.28 328.891 1165.76C326.067 1186.06 324.099 1206.53 323.102 1227C322.135 1246.83 322.622 1266.58 323.339 1286.4L323.697 1296.06C323.983 1303.93 324.219 1311.81 324.08 1319.68C323.697 1319.71 323.314 1319.77 322.929 1319.86C318.955 1320.79 316.242 1324.85 312.609 1326.65C304.943 1330.47 295.681 1330.42 287.52 1328.49C268.958 1324.09 253.524 1311.13 243.356 1295.3C231.148 1276.31 226.669 1253.96 226.812 1231.59C226.979 1206.43 231.054 1182.36 236.726 1158.07L237.09 1156.51C241.864 1136.27 244.854 1091.79 246.086 1091.6ZM765.863 1040.82C765.757 1047.59 768.509 1054.83 770.021 1061.41C771.649 1068.49 773.273 1075.58 774.92 1082.67L776.401 1089.01C777.634 1094.3 778.849 1099.59 779.939 1104.92C780.834 1109.29 781.21 1115.06 782.678 1119.88C765.218 1112.81 747.732 1105.82 730.274 1098.78C708.767 1090.1 687.158 1081.67 665.6 1073.13C644.122 1064.63 622.766 1054.97 600.854 1047.7C595.638 1045.96 592.108 1054.29 597.102 1056.6C619.356 1066.92 642.902 1075.01 665.701 1084.05L698.68 1097.15C728.913 1109.15 759.166 1121.09 789.572 1132.62C810.282 1140.47 830.912 1148.55 851.754 1156.01C861.691 1159.56 871.718 1162.92 881.605 1166.61C889.887 1169.69 898.845 1174.28 901.912 1183.18C902.073 1183.64 902.709 1183.45 902.638 1182.97C901.397 1174.36 895.001 1168.97 887.789 1164.89C878.217 1159.47 867.703 1155.52 857.599 1151.17L856.223 1150.57C835.59 1141.57 814.791 1132.93 793.93 1124.44C794.137 1123.94 794.259 1123.39 794.268 1122.83L794.327 1122.85C794.707 1118.99 792.938 1115.55 791.666 1111.96L788.017 1101.66C785.586 1094.81 783.405 1087.86 781.158 1080.94C778.809 1073.71 776.437 1066.49 774.069 1059.26C772.064 1053.14 770.716 1045.85 767.285 1040.38C766.872 1039.72 765.732 1040.09 765.863 1040.82ZM364.068 1025.6L364.328 1026.91C364.631 1028.45 364.916 1030 364.986 1031.55C365.189 1035.62 364.725 1039.69 363.644 1043.61C362.585 1047.5 361.103 1051.25 358.994 1054.69C356.996 1057.93 354.101 1060.48 352.255 1063.8C352.064 1064.15 351.943 1064.5 351.893 1064.85C351.187 1064.55 350.49 1064.29 349.814 1064.08C344.185 1062.29 338.435 1060.8 332.605 1059.68L333.529 1059.62L334.126 1059.57C343.869 1058.74 353.061 1055.56 351.075 1044.18C349.951 1037.75 344.905 1033.43 339.496 1030.38L338.818 1030C338.526 1029.84 338.223 1029.68 337.931 1029.54C342.824 1028.71 346.374 1027.69 352.376 1026.68C356.271 1026.02 360.175 1025.66 364.068 1025.6ZM809.142 885.449C799.563 904.811 792.356 925.397 786.919 946.283C784.294 956.369 782.066 966.555 780.274 976.822L779.686 980.25L779.352 982.111C777.678 991.262 775.553 1001.18 778.011 1010.11C778.813 1013.02 783.655 1014.18 785.011 1011.02C789.101 1001.5 788.526 990.545 789.711 980.351C790.957 969.654 792.657 959.008 794.775 948.449C798.844 928.161 804.556 908.348 810.922 888.684L811.632 886.5C812.173 885.044 809.818 884.084 809.142 885.449ZM440.93 972.065C443.785 973.408 446.64 974.639 449.162 975.869C449.352 975.971 449.554 976.061 449.757 976.163C446.902 975.678 444.037 975.224 441.172 974.799C441.201 973.871 441.11 972.954 440.93 972.065ZM329.221 962.368C329.65 962.507 330.029 962.732 330.359 963.041L330.519 963.202C330.913 963.569 331.191 964.002 331.354 964.501C331.606 964.984 331.723 965.502 331.702 966.057L331.557 967.13C331.366 967.814 331.02 968.407 330.519 968.911L329.703 969.542C329.152 969.861 328.564 970.042 327.937 970.084L327.667 970.094L326.85 970.094C326.382 970.078 325.943 969.963 325.531 969.746C325.102 969.606 324.723 969.382 324.393 969.073L324.233 968.911C323.838 968.545 323.561 968.112 323.398 967.612C323.181 967.2 323.066 966.76 323.05 966.293L323.05 966.057L323.194 964.984C323.362 964.385 323.648 963.856 324.052 963.396L324.233 963.202L325.049 962.571C325.599 962.252 326.188 962.072 326.815 962.03L327.085 962.021H327.667C328.222 962 328.741 962.116 329.221 962.368ZM355.469 961.003C357.613 961.396 358.828 963.996 358.287 965.966C357.687 968.149 355.614 969.119 353.532 968.821L353.323 968.787C350.884 968.338 348.494 968.511 346.171 969.368C344.127 970.123 341.749 968.524 341.208 966.549C340.588 964.294 341.973 962.341 344.026 961.584C347.708 960.223 351.658 960.3 355.469 961.003ZM780.489 817.65C775.608 824.806 772.56 834.318 769.554 842.496L769.253 843.309C766.057 851.902 762.974 860.564 760.099 869.272C754.36 886.654 746.881 904.844 745.499 923.206C745.243 926.594 750.428 927.953 751.931 924.949C756.249 916.314 758.572 907.313 761.127 898.055C763.564 889.226 766.103 880.428 768.644 871.628C771.183 862.833 773.639 854.013 776.14 845.207C778.572 836.64 781.959 827.115 782.516 818.199C782.588 817.041 781.05 816.827 780.489 817.65ZM670.318 760.044C663.802 764.568 658.466 771.185 652.952 776.844C647.358 782.586 641.839 788.381 636.371 794.244C627.234 804.043 618.263 814.002 608.997 823.682C590.532 842.971 569.643 860.722 544.158 869.788C537.992 871.982 540.693 881.881 546.874 879.641C572.941 870.188 594.534 852.708 613.581 832.934C623.446 822.694 632.498 811.751 641.324 800.613C645.455 795.401 649.554 790.173 653.595 784.894L656.012 781.72C661.094 775.013 667.311 768.329 671.03 760.756C671.238 760.33 670.78 759.724 670.318 760.044Z" fill="black"/>
<path fill-rule="evenodd" clip-rule="evenodd" d="M540.436 251.905C524.689 248.726 508.519 246.748 492.437 247.343L491.198 247.392C479.098 247.875 463.775 248.945 453.219 255.984C452.612 255.374 451.635 255.061 450.75 255.484C438.206 261.473 424.41 265.804 411.203 270.106C398.056 274.388 384.417 277.215 370.638 278.354C365.453 278.783 361.017 284.383 364.299 289.405C365.08 290.602 365.841 291.811 366.598 293.023C365.331 292.891 364.064 292.754 362.797 292.626C358.628 292.206 354.463 296.658 354.71 300.719C354.864 303.273 355.139 305.796 355.547 308.29C353.959 308.257 352.38 308.495 350.855 309.14C343.132 312.402 343.669 321.605 344.247 328.606C345.048 338.322 348.681 348.613 355.426 355.885C350.39 361.117 346.825 367.366 344.698 374.787C343.156 380.206 342.297 385.978 342.721 391.619L342.856 393.308C343.38 399.43 344.422 406.207 348.824 410.611C351.084 412.882 353.868 413.709 356.522 413.447C354.917 427.554 353.889 441.743 352.92 455.881L352.466 462.638C350.306 495.314 348.682 528.202 349.107 560.931C349.501 591.518 355.543 621.207 374.297 646.042C391.377 668.656 415.9 685.327 443.642 691.665C458.592 695.085 473.855 695.328 488.987 693.148C496.322 692.088 503.706 690.464 510.668 687.9C518.374 685.055 523.912 680.867 529.097 674.59C531.55 671.613 530.369 665.276 525.486 665.871C518.1 666.767 511.358 667.847 504.277 670.032L503.263 670.352C496.21 672.612 488.907 674.297 481.533 675.014C466.431 676.477 451.098 675.004 436.63 670.422C413.075 662.955 392.788 646.314 379.784 625.405C364.35 600.621 362.605 572.486 362.827 543.988C363.066 512.717 364.083 481.427 365.743 450.188L366.025 444.982C366.903 428.907 367.75 412.821 368.496 396.735C368.728 391.69 369.081 386.604 369.718 381.568C375.537 378.157 380.753 373.455 384.153 367.652C390.982 370.478 398.165 372.516 404.774 374.141C420.081 377.907 435.974 378.821 451.555 376.463C455.757 378.2 460.044 379.727 464.396 381.04C465.572 381.562 466.748 382.075 467.924 382.577C478.416 387.068 489.059 390.872 500.135 393.658L502.856 394.336C508.684 395.774 515.015 397.189 521.219 397.634C522.238 398.027 523.337 398.36 524.539 398.653C530.187 400.025 536.049 400.459 541.839 399.975C547.479 399.5 551.554 393.799 548.447 388.461C546.177 384.565 543.886 380.68 541.576 376.805C549.616 380.155 557.919 382.941 566.292 385.302C574.746 387.684 583.321 389.692 591.906 391.538C596.496 392.517 601.106 393.385 605.686 394.364C608.964 395.06 613.998 395.424 616.673 397.583C619.627 399.955 620.465 405.485 621.585 408.895C623.058 413.326 624.44 417.776 625.701 422.277C628.212 431.258 630.27 440.37 631.864 449.574C633.458 458.787 634.528 468.091 635.124 477.426C635.718 486.75 635.456 496.135 636.414 505.419C636.929 510.344 642.214 512.876 646.118 509.435C646.576 509.032 647.038 508.624 647.495 508.211L648.176 507.589C651.517 504.561 654.755 501.352 657.427 497.74C657.911 497.073 658.375 496.377 658.809 495.671C658.88 495.671 658.94 495.651 659.011 495.6L659.752 495.042C667.911 488.968 681.541 481.048 689.497 491.14C692.032 494.355 693.33 498.449 694.407 502.398L696.297 509.466C697.52 514.081 698.671 518.721 699.344 523.442C700.867 534.018 700.101 546.208 692.826 554.685C689.921 558.076 685.916 560.497 681.448 561.133C678.955 561.476 676.494 561.052 674.022 560.74C671.51 560.427 669.09 560.931 666.577 560.689C662.582 560.296 660.837 565.079 662.33 568.086C663.137 569.701 664.086 571.093 665.165 572.274C664.298 573.021 663.47 573.828 662.673 574.676C660.312 575.433 658.195 577.057 656.61 579.207C655.329 580.942 654.664 582.83 654.552 584.818C654.412 585.312 654.291 585.817 654.179 586.331L652.015 589.845C651.539 590.616 651.064 591.377 650.588 592.124C645.08 600.802 638.966 608.149 631.37 615.071C624.056 621.732 616.118 627.696 609.247 634.84L608.437 635.689C602.032 642.441 595.28 650.614 597.787 660.432C598.432 662.955 601.954 664.771 604.253 663.066C611.648 657.576 615.371 648.877 621.645 642.217C628.102 635.355 635.255 629.189 641.73 622.347C647.855 615.889 652.687 608.573 656.328 600.52C657.781 602.124 659.899 603.265 662.834 603.709C667.878 604.465 672.58 601.509 674.779 597.139C676.192 597.765 677.633 598.33 679.087 598.774C686.734 601.115 691.545 592.608 688.66 586.321C687.117 582.951 685.19 580.024 682.799 577.562C690.275 576.533 697.881 572.668 702.794 567.844C715.121 555.724 716.815 537.509 714.041 521.313C712.568 512.725 710.027 504.036 706.727 495.974C706.153 494.571 705.537 493.158 704.862 491.765C705.235 491.755 705.619 491.594 705.861 491.281C708.09 488.233 710.803 485.741 712.458 482.33C713.982 479.202 715.675 476.033 716.877 472.774C719.347 466.103 720.558 458.575 721.365 451.521C723.03 437.081 722.385 422.731 720.175 408.381C716.413 383.94 707.326 360.55 693.938 340.026C694.667 339.643 695.365 339.181 696.016 338.634L696.338 338.353L696.86 337.881C700.681 334.423 700.351 327.941 696.86 324.438L695.758 323.333C694.362 321.946 693.158 320.846 690.903 319.336C690.57 319.113 690.23 318.903 689.886 318.707C691.067 316.526 691.476 313.974 690.654 311.16C687.789 301.355 673.686 301.702 664.747 305.978C654.858 297.149 643.892 289.485 632.006 283.279C603.698 268.505 571.69 258.202 540.436 251.905ZM686.763 510.142C681.477 508.416 674.455 512.039 669.704 514.219C663.681 516.984 658.557 521.071 653.593 525.39C651.122 527.549 650.679 531.081 651.293 534.099C651.355 534.401 651.414 534.714 651.486 535.027C652.142 538.246 655.733 540.779 658.911 540.688C665.559 540.507 668.725 534.765 672.489 529.901C672.932 530.688 673.487 531.414 674.174 531.959L674.638 532.322C676.2 533.512 677.921 534.463 679.985 534.371C681.447 534.3 682.849 533.927 684.141 533.251C687.369 531.545 688.791 527.368 687.914 523.967C687.369 521.827 686.118 520.152 684.484 518.992L685.093 518.575C686.397 517.668 687.585 516.711 688.512 515.299L688.721 514.965H688.64C689.649 513.23 688.992 510.868 686.763 510.142Z" fill="black"/>
<path fill-rule="evenodd" clip-rule="evenodd" d="M437.778 611.695C445.21 613.848 453.186 614.04 460.761 611.817C467.632 609.8 474.687 605.361 479.744 599.487C484.236 594.27 487.145 587.929 487.031 581.16C487.018 580.387 486.742 579.742 486.316 579.241C485.859 578.702 485.22 578.332 484.535 578.171C483.831 578.006 483.087 578.064 482.453 578.352C481.879 578.613 481.387 579.056 481.08 579.703C480.303 580.725 479.529 581.731 478.752 582.709C472.503 590.427 466.452 596.195 457.056 598.264C451.958 599.386 446.867 598.889 442.195 597.176C437.194 595.342 432.674 592.118 429.131 587.993C427.53 586.128 425.64 585.367 423.792 585.354C421.698 585.34 419.628 586.313 418.068 587.869C416.535 589.399 415.509 591.477 415.416 593.651C415.334 595.559 415.957 597.552 417.612 599.331C423.065 605.188 430.132 609.479 437.778 611.695ZM438.008 515.028C430.39 519.66 418.782 530.461 426.977 541.944C436.624 552.069 450.512 540.46 457.356 535.21C463.703 531.141 470.833 541.606 464.945 546.357C415.49 582.984 395.42 516.239 434.155 509.582C438.419 508.848 440.003 513.595 438.008 515.028ZM509.269 494.647C511.717 493.08 514.597 492.543 517.789 493.995C520.284 495.13 524.659 498.913 527.703 503.885C529.786 507.287 531.263 511.278 530.956 515.436C530.885 516.401 531.241 517.113 531.804 517.639C532.248 518.055 532.89 518.36 533.643 518.456C534.283 518.537 535 518.464 535.582 518.282C536.69 517.936 537.276 517.217 537.497 516.63C539.629 510.967 538.71 504.647 536.321 498.945C533.097 491.251 527.241 484.805 523.405 482.727C516.84 479.17 509.095 479.006 502.521 482.63C496.924 485.714 493.425 490.694 489.945 495.77C489.205 496.849 488.471 497.92 487.712 498.972C486.191 501.081 486.04 503.172 486.629 504.965C487.281 506.952 488.945 508.629 491.025 509.506C492.948 510.317 495.18 510.431 497.155 509.598C498.823 508.894 500.354 507.522 501.323 505.194C502.955 501.273 505.673 496.947 509.269 494.647V494.647ZM384.918 503.37C386.595 504.244 387.907 504.507 389.767 503.95C390.795 503.641 391.812 503.048 392.608 502.252C393.397 501.463 393.966 500.482 394.187 499.393C394.731 496.707 396.201 494.192 398.295 492.552C400.085 491.151 402.344 490.408 404.85 490.827C407.554 491.279 410.13 493.014 411.904 495.059C412.497 495.743 412.962 496.521 413.429 497.293C414.304 498.736 415.153 500.078 416.359 501.139C416.816 501.542 417.505 501.821 418.172 501.821C418.443 501.821 418.718 501.777 418.98 501.696C421.672 498.993 422.189 496.944 422.102 494.91C422.011 492.778 421.171 490.62 419.813 488.605C416.628 483.881 410.58 480.007 406.498 479.129C400.909 477.928 395.358 479.37 390.908 482.493C386.329 485.706 382.936 490.695 381.878 496.317C381.623 497.671 381.732 499.132 382.247 500.399C382.751 501.638 383.629 502.698 384.918 503.37ZM496.942 444.273C500.296 447.542 504.266 448.049 508.282 448.499C510.514 448.752 512.295 448.955 514.048 449.351C518.867 450.439 523.63 452.078 527.975 454.438C532.517 456.905 537.467 459.88 541.029 463.692C541.875 464.599 542.674 465.55 543.473 466.504C544.202 467.374 544.904 468.211 545.644 469.019C546.494 469.946 547.301 470.918 548.104 471.887C548.6 472.705 548.698 472.906 548.798 473.116C548.949 473.431 549.124 473.783 549.323 474.161C549.597 474.678 549.918 475.244 550.253 475.758C550.812 476.697 551.112 476.955 551.371 477.071C551.801 477.262 552.208 477.357 552.604 477.306C552.974 477.258 553.324 477.079 553.669 476.788C555.391 475.332 555.899 472.944 555.847 470.408C555.768 466.561 554.349 462.301 553.041 459.682C550 453.597 545.783 447.272 540.712 442.73C534.925 437.547 528.595 433.622 521.323 430.918C516.804 429.237 511.572 427.694 506.649 427.889C503.106 428.029 499.723 429.083 496.929 431.714C495.214 433.329 494.39 435.627 494.39 437.923C494.39 440.265 495.246 442.62 496.942 444.273ZM378.096 474.209C378.309 474.559 378.605 474.8 378.933 474.945C379.278 475.096 379.662 475.14 380.031 475.078C380.398 475.016 380.747 474.849 381.024 474.595C381.29 474.351 381.492 474.027 381.582 473.631C383.809 463.847 388.133 456.567 397.363 451.873C401.903 449.564 407.124 448.097 412.066 446.927C413.502 446.587 415.02 446.366 416.548 446.143C421.337 445.444 426.162 444.643 429.284 440.77C431.166 438.437 431.955 435.453 431.509 432.725C431.088 430.156 429.588 427.8 426.86 426.389C420.068 422.876 411.628 426.323 404.769 429.259C404.26 429.477 403.761 429.691 403.272 429.897C396.565 432.729 390.448 436.467 385.419 441.813C381.429 446.055 377.733 452.325 376.244 458.775C375.005 464.141 375.297 469.619 378.096 474.209Z" fill="black"/>
</svg>
