<svg width="1146" height="1547" viewBox="0 0 1146 1547" fill="none" xmlns="http://www.w3.org/2000/svg">
<path fill-rule="evenodd" clip-rule="evenodd" d="M243.041 1251.96C245.686 1250.64 248.443 1249.13 251.464 1249.02C256.651 1248.84 256.658 1240.77 251.464 1240.95C246.933 1241.11 242.954 1243 238.968 1244.99C234.316 1247.31 238.408 1254.27 243.041 1251.96M251.464 1024.72C247.924 1024.73 244.356 1025.17 241.637 1027.65C240.021 1029.12 240.149 1031.87 241.637 1033.36C243.23 1034.95 245.734 1034.82 247.345 1033.36C246.819 1033.83 247.34 1033.36 247.53 1033.26C247.576 1033.23 247.601 1033.21 247.613 1033.2C247.653 1033.19 247.694 1033.18 247.759 1033.17C248.181 1033.06 248.598 1032.96 249.024 1032.88C249.031 1032.9 249.925 1032.82 250.135 1032.81C250.579 1032.8 251.021 1032.8 251.464 1032.8C253.653 1032.79 255.499 1030.95 255.499 1028.76C255.499 1026.58 253.645 1024.72 251.464 1024.72M289.41 1115.28C290.566 1120.35 298.345 1118.19 297.192 1113.13C295.515 1105.78 295.821 1098.24 297.192 1090.86C298.136 1085.78 290.357 1083.62 289.41 1088.72C287.765 1097.57 287.397 1106.45 289.41 1115.28M299.603 825.142C305.613 823.714 311.558 823.545 317.706 823.543C322.907 823.541 322.899 815.468 317.706 815.47C310.849 815.472 304.155 815.766 297.457 817.358C292.399 818.559 294.554 826.341 299.603 825.142M319.742 1021.78C323.228 1020.04 326.715 1018.29 330.201 1016.55C334.853 1014.22 330.761 1007.26 326.128 1009.58L315.669 1014.81C311.018 1017.14 315.11 1024.1 319.742 1021.78M321.194 1180.76C325.616 1187.14 331.833 1191.1 339.294 1193.08C344.328 1194.41 346.457 1186.62 341.44 1185.29C336.104 1183.88 331.364 1181.3 328.163 1176.69C325.22 1172.44 318.227 1176.48 321.194 1180.76M349.08 896.525C350.277 894.289 352.078 893.344 354.313 893.294C359.506 893.175 359.507 885.102 354.313 885.221C349.219 885.336 344.547 887.895 342.113 892.451C339.662 897.036 346.632 901.11 349.08 896.525M400.269 951.4C401.716 952.976 404.521 952.937 405.976 951.4C406.867 950.459 407.615 949.409 408.204 948.257C408.428 947.82 408.639 947.375 408.885 946.95C408.995 946.762 409.117 946.574 409.242 946.392C409.285 946.355 409.373 946.264 409.463 946.168C411.014 944.528 410.975 942.108 409.463 940.46C408.016 938.883 405.21 938.923 403.755 940.46C402.866 941.4 402.116 942.451 401.528 943.602C401.304 944.039 401.093 944.484 400.846 944.91C400.736 945.099 400.614 945.285 400.489 945.467C400.447 945.504 400.36 945.595 400.269 945.691C398.718 947.331 398.757 949.752 400.269 951.4M404.573 1070.61C409.828 1073.01 415.593 1073.01 420.849 1070.61C422.839 1069.7 423.311 1066.82 422.295 1065.08C421.119 1063.07 418.755 1062.73 416.775 1063.64C414.391 1064.73 411.026 1064.73 408.645 1063.64C406.656 1062.73 404.315 1063.05 403.125 1065.08C402.103 1066.83 402.59 1069.7 404.573 1070.61M418.909 1154.99C419.812 1157.12 421.762 1158.26 424.042 1158.35C426.3 1158.43 427.982 1156.43 428.077 1154.31C428.137 1152.94 427.398 1151.77 426.336 1151.05C426.335 1150.97 426.333 1150.9 426.333 1150.82C426.332 1148.56 424.484 1146.88 422.297 1146.79C420.119 1146.69 418.261 1148.71 418.262 1150.82C418.263 1152.25 418.351 1153.66 418.909 1154.99M439.73 1289.13C446.171 1289.24 452.464 1290.77 458.905 1290.87C464.109 1290.96 464.093 1282.89 458.905 1282.8C452.465 1282.7 446.172 1281.16 439.73 1281.06C434.526 1280.97 434.542 1289.05 439.73 1289.13M466.512 771.79C470.282 775.383 474.939 777.153 479.531 779.397C484.183 781.671 488.27 774.707 483.604 772.426C479.714 770.525 475.408 769.12 472.218 766.083C468.455 762.497 462.742 768.2 466.512 771.79M476.631 864.842C479.277 863.521 482.034 862.011 485.053 861.906C490.241 861.724 490.248 853.651 485.053 853.833C480.523 853.99 476.545 855.88 472.558 857.871C467.904 860.194 471.997 867.155 476.631 864.842M525.146 1238.31C526.34 1236.07 528.141 1235.12 530.376 1235.07C535.571 1234.96 535.573 1226.88 530.376 1227C525.282 1227.12 520.61 1229.68 518.176 1234.23C515.727 1238.82 522.695 1242.89 525.146 1238.31M541.946 1063C543.552 1061.53 543.44 1058.79 541.946 1057.29C540.203 1055.55 538.46 1053.81 536.716 1052.06C535.122 1050.47 532.621 1050.58 531.01 1052.06C529.404 1053.54 529.516 1056.27 531.01 1057.77C532.754 1059.51 534.496 1061.26 536.24 1063C537.836 1064.6 540.335 1064.48 541.946 1063M561.755 1336.21C567.577 1336.08 573.035 1334.41 578.516 1332.58C583.428 1330.95 581.31 1323.15 576.371 1324.8C571.606 1326.38 566.82 1328.02 561.755 1328.14C556.561 1328.26 556.559 1336.33 561.755 1336.21M587.903 1163.58C593.163 1163.43 597.526 1160.75 601.216 1157.16C604.947 1153.54 599.234 1147.83 595.509 1151.46C593.397 1153.51 590.961 1155.42 587.903 1155.51C582.711 1155.65 582.707 1163.72 587.903 1163.58M571.666 941.57C571.602 943.719 570.694 946.022 569.361 947.435C565.794 951.213 571.494 956.929 575.067 953.143C578.015 950.021 579.612 945.842 579.736 941.57C579.885 936.365 571.814 936.387 571.666 941.57M633.224 765.743C634.913 762.435 637.126 758.555 640.492 756.728C645.064 754.246 640.986 747.278 636.419 749.757C631.843 752.241 628.568 757.138 626.255 761.668C623.894 766.29 630.861 770.37 633.224 765.743M643.685 849.699C645.557 849.646 647.416 849.325 649.221 848.835C649.993 848.626 650.756 848.384 651.529 848.174C651.859 848.085 653.265 847.909 652.401 847.956C654.586 847.838 656.436 846.202 656.436 843.919C656.436 841.821 654.58 839.765 652.401 839.882C649.406 840.043 646.682 841.541 643.685 841.626C638.495 841.773 638.491 849.846 643.685 849.699M669.833 978.738H678.549C683.751 978.738 683.742 970.665 678.549 970.665H669.833C664.632 970.665 664.641 978.738 669.833 978.738M680 1335.66C682.643 1336.98 685.758 1338.24 687.899 1340.26C691.674 1343.83 697.388 1338.13 693.606 1334.55C690.879 1331.97 687.393 1330.35 684.073 1328.69C682.116 1327.71 679.712 1328.15 678.551 1330.14C677.503 1331.93 678.051 1334.69 680 1335.66M699.475 1233.66C699.813 1233.56 700.17 1233.5 700.512 1233.45C701.884 1233.27 703.32 1233.33 704.698 1233.33C709.899 1233.33 709.891 1225.25 704.698 1225.26C700.605 1225.26 696.346 1225.32 693.128 1228.18C691.494 1229.64 691.653 1232.42 693.128 1233.89C694.732 1235.5 697.208 1235.34 698.834 1233.89C698.663 1234.05 699.251 1233.72 699.475 1233.66M704.696 1096.47C703.523 1094.05 703.505 1092.48 703.503 1089.79C703.499 1084.59 695.429 1084.6 695.433 1089.79C695.435 1093.69 696.015 1097.01 697.727 1100.55C698.682 1102.52 701.478 1103.03 703.247 1102C705.23 1100.84 705.645 1098.43 704.696 1096.47M728.03 907.1C732.711 908.692 736.889 910.947 741.011 913.668C745.362 916.54 749.401 909.546 745.085 906.697C740.381 903.592 735.515 901.132 730.176 899.314C725.239 897.635 723.139 905.436 728.03 907.1M755.251 771.229C758.728 771.326 762.317 772.66 765.416 774.166C770.074 776.428 774.161 769.464 769.489 767.195C765.062 765.043 760.219 763.295 755.251 763.156C750.046 763.01 750.068 771.084 755.251 771.229M767.453 1133.93C768.821 1134 769.99 1133.26 770.715 1132.19C770.79 1132.19 770.865 1132.19 770.94 1132.19C773.201 1132.19 774.876 1130.34 774.975 1128.15C775.073 1125.98 773.05 1124.12 770.94 1124.12C769.515 1124.12 768.102 1124.21 766.778 1124.76C764.641 1125.67 763.505 1127.62 763.418 1129.9C763.332 1132.16 765.336 1133.84 767.453 1133.93M787.299 854.786C792.256 856.406 794.36 848.608 789.445 847.002C783.676 845.116 777.78 843.656 772.012 841.77C767.056 840.15 764.951 847.948 769.867 849.555C775.635 851.44 781.531 852.9 787.299 854.786M805.398 1007.16C806.936 1012.12 814.723 1009.99 813.181 1005.02C811.692 1000.22 811.585 995.384 811.582 990.396C811.579 985.192 803.509 985.202 803.512 990.396C803.515 996.073 803.705 1001.7 805.398 1007.16M859.356 1189.67C859.65 1191.68 861.244 1193.13 863.33 1193.22C865.453 1193.32 867.442 1191.3 867.365 1189.19C867.217 1185.12 863.905 1181.81 859.843 1181.66C857.584 1181.58 855.903 1183.58 855.808 1185.7C855.715 1187.76 857.436 1189.37 859.356 1189.67M886.662 957.669C890.927 959.093 895.483 960.449 898.826 963.606C902.604 967.172 908.318 961.472 904.533 957.897C900.125 953.735 894.454 951.77 888.807 949.884C883.862 948.233 881.761 956.033 886.662 957.669M905.169 1114.5C906.341 1116.5 908.715 1116.86 910.689 1115.95C913.336 1114.71 916.259 1114.76 919.112 1114.75C924.313 1114.75 924.305 1106.68 919.112 1106.68C914.71 1106.68 910.649 1107.1 906.615 1108.97C904.631 1109.9 904.148 1112.75 905.169 1114.5M915.626 1304.83C917.886 1304.91 919.566 1302.91 919.661 1300.79C919.754 1298.73 918.034 1297.12 916.112 1296.82C915.82 1294.81 914.225 1293.36 912.14 1293.26C910.015 1293.17 908.027 1295.19 908.104 1297.3C908.253 1301.36 911.563 1304.68 915.626 1304.83M180.384 1335.35C181.755 1330.41 184.893 1326.43 187.263 1321.99C188.058 1320.49 188.335 1319.56 188.766 1318.47C189.351 1319.64 190.487 1320.52 192.194 1320.52C195.471 1320.52 199.303 1320.31 202.361 1321.71C204.35 1322.62 206.692 1322.3 207.881 1320.26C208.903 1318.51 208.415 1315.65 206.434 1314.74C201.927 1312.68 197.083 1312.45 192.194 1312.45C190.987 1312.45 190.073 1312.89 189.427 1313.56C187.559 1287.97 187.605 1262.36 189.373 1236.75C191.258 1209.38 195.597 1182.56 200.137 1155.54C202.335 1142.44 205.19 1129.21 204.635 1115.87C204.08 1102.62 198.401 1090.27 202.426 1076.98C204.04 1071.65 206.804 1066.77 208.6 1061.5C210.526 1055.83 210.355 1050.23 209.477 1044.36C207.672 1032.4 204.676 1020.58 209.468 1008.91C211.586 1003.73 215.017 999.106 216.67 993.758C218.728 987.108 218.446 979.751 218.789 972.859C219.485 958.953 219.666 944.956 220.817 931.081C221.331 924.865 222.45 918.971 225.003 913.27C227.455 907.78 231.096 902.785 232.72 896.962C234.334 891.23 234.475 885.185 235.343 879.322C236.251 873.126 237.673 867.021 239.59 861.067C246.995 838.019 260.563 817.311 276.593 799.359C293.632 780.276 313.999 765.906 335.618 752.515C346.986 745.473 358.353 738.431 369.713 731.39C369.956 732.711 370.798 733.925 372.415 734.465C376.681 735.89 381.236 737.245 384.58 740.402C388.357 743.968 394.072 738.268 390.287 734.695C386.339 730.965 381.376 729.002 376.326 727.277C381.502 724.014 386.734 720.634 392.575 718.749C397.691 717.094 405.235 718.537 409.383 714.783C412.64 711.827 413.67 706.347 414.92 702.331C416.484 697.346 417.835 692.088 419.823 687.244C421.175 683.934 423.142 680.755 425.623 678.192C426.713 673.994 428.711 670.16 432.242 667.828C441.482 661.713 452.831 667.788 456.896 676.507C460.256 676.497 463.796 677.234 467.065 677.435C473.784 677.859 480.512 678.051 487.241 678.031C500.406 677.99 513.581 677.133 526.635 675.387C549.978 672.259 572.626 665.951 595.576 661.037C595.707 660.734 595.859 660.431 596.04 660.129C600.984 651.834 613.301 653.236 621.06 656.375C624.388 657.717 627.777 659.412 629.684 662.561C631.702 663.923 633.447 665.578 634.607 667.324C637.008 670.926 638.864 678.192 643.737 678.798C646.945 679.191 650.203 678.576 653.461 679.04C657.537 679.605 661.189 681.038 664.952 682.673C693.602 695.115 723.22 708.951 754.312 713.774C761.605 714.904 769.03 716.075 775.365 720.162C780.51 723.482 784.486 728.043 788.732 732.373C792.868 736.591 796.278 738.458 802.179 739.214C809.342 740.133 815.546 742.111 820.781 747.318C825.129 751.647 827.964 757.177 831.374 762.202C834.845 767.329 839.939 770.215 845.225 773.192C857.724 780.236 869.365 788.743 879.504 798.945C900.86 820.46 913.793 848.11 926.827 875.054C940.92 904.198 954.095 933.694 963.235 964.816C972.193 995.373 977.519 1026.81 979.981 1058.53C982.573 1091.83 982.936 1125.25 985.095 1158.56C986.175 1175.2 986.992 1191.86 987.819 1208.51C988.626 1224.96 989.806 1241.44 989.616 1257.91C989.252 1289.75 982.887 1321.69 971.759 1351.5C968.985 1358.91 965.909 1366.23 962.63 1373.43C959.754 1379.76 949.918 1379.05 946.831 1373.43C946.125 1372.14 945.57 1370.81 945.106 1369.46C937.036 1369.53 928.885 1368.9 920.865 1369.65C906.701 1370.97 892.508 1371.71 878.304 1372.59C850.198 1374.33 822.042 1375.49 793.927 1377.1C791.199 1377.25 788.472 1377.41 785.745 1377.57C805.781 1315.54 803.182 1248.47 806.353 1183.96C806.608 1178.75 798.535 1178.78 798.282 1183.96C795.098 1248.75 797.809 1315.99 777.065 1378.12C769.017 1378.67 760.98 1379.33 752.97 1380.31C746.494 1381.08 739.986 1382 733.449 1381.68C726.035 1381.33 718.792 1379.63 711.558 1378.16C698.414 1375.48 685.753 1376.69 672.558 1378.34C658.445 1380.1 644.281 1381.08 630.077 1381.7C573.201 1384.19 515.941 1386.46 459.085 1382.66C445.325 1381.74 431.595 1380.45 417.926 1378.69C403.843 1376.89 389.912 1373.85 375.84 1372.12C361.969 1370.43 349.217 1375.08 335.507 1375.94C321.526 1376.81 307.17 1373.9 293.319 1372.22C288.8 1371.68 284.277 1371.14 279.752 1370.61C285.577 1330.68 288.889 1290.44 292.106 1250.22C292.521 1245.03 284.447 1245.08 284.036 1250.22C280.845 1290.13 277.607 1330.06 271.791 1369.69C247.807 1366.89 223.799 1364.07 200.065 1359.72C193.306 1358.49 186.588 1356.48 182.542 1350.45C179.547 1345.98 178.941 1340.5 180.384 1335.35" fill="black"/>
<path fill-rule="evenodd" clip-rule="evenodd" d="M580.819 198.049C575.351 191.793 566.12 189.29 557.919 189.775C546.005 190.481 535.643 197.838 523.79 198.382C511.362 198.958 499.368 194.649 486.909 196.647C479.272 197.878 471.706 201.42 466.814 207.394C449.866 202.54 431.465 208.968 420.671 223.005C407.355 220.937 392.868 229.757 388.793 242.593C371.875 243.137 355.906 256.731 354.019 273.765C347.259 275.551 341.389 280.214 337.788 286.379C333.601 293.523 332.905 301.718 333.662 309.771C325.702 313.837 321.657 322.576 320.598 331.82C313.324 337.249 310.167 347.007 311.65 356.221C306.081 359.359 303.205 366.665 303.236 373.184C303.267 379.269 304.88 384.659 302.61 390.531C300.588 395.762 299.862 400.12 300.974 405.599L301.088 406.133C301.284 407.026 301.45 407.882 301.598 408.727C300.092 410.049 298.818 411.706 297.861 413.633C294.373 420.677 294.893 428.711 297.553 435.855C296.388 440.404 296.536 445.209 298.258 449.582C295.033 454.229 293.337 459.928 293.835 465.842C294.394 472.463 297.417 478.391 302 482.775C300.779 491.819 304.455 501.59 311.102 507.958C310.159 513.372 310.973 519.046 313.934 524.179C316.044 527.837 318.885 530.562 322.162 532.461C322.055 535.481 322.463 538.57 323.468 541.665C324.863 545.96 327.226 549.917 330.335 553.104C328.48 564.969 335.582 578.135 348.082 581.464C349.132 581.744 350.134 581.872 351.093 581.892C352.335 593.304 355.046 604.558 359.245 615.246C369.918 642.461 389.328 666.257 414.638 681.101C427.158 688.437 441.22 693.463 455.576 695.562C465.906 697.076 475.843 696.702 486.212 695.673C499.227 694.371 512.301 692.423 524.951 689.073L526.986 688.532C532.23 687.127 537.759 685.505 542.302 682.675C547.387 679.507 550.029 674.622 551.199 668.87C551.852 665.669 549.825 662.225 546.321 662.159L546.096 662.16C545.329 662.176 544.569 662.147 543.799 662.098L543.219 662.059H543.19C543.15 662.049 543.129 662.049 543.089 662.049C542.746 661.998 542.413 661.897 542.08 661.847C538.226 661.198 534.855 661.841 531.236 663.046L530.782 663.199C524.689 665.298 518.646 667.246 512.351 668.689C505.844 670.172 499.257 671.353 492.649 672.281L491.993 672.362L491.792 672.392L491.691 672.402V672.402C491.671 672.402 491.65 672.402 491.63 672.412L489.683 672.655V672.655C488.149 672.836 486.617 672.998 485.083 673.159C482.258 673.442 479.434 673.664 476.609 673.825C427.854 676.57 386.906 638.172 374.549 592.136C370.07 575.475 369.777 558.855 371.099 542.224C371.522 541.013 371.774 539.671 371.764 538.198C371.764 537.431 371.723 536.674 371.674 535.907C373.317 519.821 376.172 503.726 377.958 487.58C380.046 468.719 381.207 449.748 380.783 430.765C380.571 421.391 379.572 412.107 378.261 402.824L377.787 399.488V399.488C383.714 398.331 389.224 395.52 393.611 391.45C403.132 396.949 415.455 397.437 424.853 391.629C435.384 398.236 450.099 398.836 460.704 392.376C467.114 396.953 475.191 398.928 483.119 397.191C486.685 396.41 490.231 394.719 493.268 392.379C495.435 392.762 497.632 392.91 499.816 392.796L500.267 393.048V393.048C505.301 395.702 510.877 397.449 516.616 397.254C520.865 397.111 525.243 396.272 529.295 394.686C533.624 397.3 538.361 399.084 543.429 399.724C550.831 400.657 558.819 399.019 564.974 394.819C576.223 401.229 590.06 402.216 602.202 397.909C604.689 402.122 608.13 405.755 612.159 408.555C611.438 411.141 611.208 413.898 611.456 416.549C611.863 420.912 612.957 424.825 614.746 428.339C612.86 432.262 612.293 437.08 613.348 441.915C614.852 448.812 618.864 454.811 624.057 459.483C624.515 470.489 630.548 480.808 640.368 486.541C640.865 486.831 641.36 487.067 641.853 487.28C642.287 487.873 642.805 488.395 643.398 488.835C649.642 494.606 659.524 494.147 667.352 490.887C667.503 490.894 667.653 490.907 667.807 490.91C670.602 490.98 672.508 489.891 673.638 488.286C674.777 488.348 675.908 488.468 677.047 488.68C681.204 489.457 685.764 490.95 689.527 492.889C699.292 497.913 703.812 506.794 705.164 517.47C706.635 529.116 703.287 540.983 694.278 548.864C689.9 552.699 684.302 555.101 678.612 556.11C672.327 557.23 665.608 554.475 660.968 559.874C660.04 560.944 659.404 562.437 659.909 563.88C661.482 568.381 664.075 570.106 668.13 570.732C662.269 577.685 656.257 584.406 649.599 590.652C642.396 597.424 634.951 603.983 628.453 611.451C621.584 619.352 615.38 627.728 611.073 637.315C608.611 642.825 606.634 648.506 604.504 654.147L604.124 655.13C601.75 661.123 598.591 666.901 602.245 673.159C603.698 675.621 606.987 678.003 610.013 677.609C618.537 676.519 621.392 670.757 624.015 663.249C625.993 657.578 627.506 651.745 629.633 646.124C630.032 645.084 630.466 644.054 630.921 643.029C635.836 644.4 641.24 643.312 645.626 640.509C650.313 642.586 655.505 643.623 660.52 643.535C667.235 643.417 673.369 641.551 678.643 638.186C679.063 638.075 679.484 637.968 679.903 637.848C687.926 640.921 697.322 640.372 704.587 635.39C709.291 632.164 712.507 627.858 714.335 623.064C720.413 622.948 726.425 620.792 730.78 616.479C734.779 612.519 737.116 607.41 737.81 602.101C743.042 601.065 747.947 598.535 751.793 594.273C755.005 590.714 756.958 586.181 757.617 581.474C763.989 579.656 769.735 575.494 772.873 569.692C775.794 564.29 776.216 558.43 774.787 553.1L775.157 552.567V552.567C781.721 549.131 786.729 543.506 787.244 535.471C787.389 533.183 787.143 530.895 786.522 528.729C786.746 526.308 786.603 523.888 785.969 521.547C794.796 512.959 797.994 499.164 793.202 487.761C801.827 478.477 804.107 463.794 797.782 452.776C802.12 447.527 804.349 440.837 803.976 433.692C803.512 424.772 799.426 416.981 794.533 409.765C798.165 405.749 800.102 400.148 799.96 394.739C799.759 386.898 795.593 380.147 790.376 374.557C794.927 360.752 789.842 345.776 778.675 337.037C780.935 333.314 781.772 328.702 781.035 324.03C779.744 315.866 773.621 310.305 767.013 305.906C768.395 301.406 768.032 296.551 765.833 291.899C762.897 285.693 757.359 281.757 751.579 278.427C750.086 264.662 734.711 252.906 721.819 260.01C725.017 249.767 715.805 238.707 705.213 237.537C700.029 221.815 682.143 211.905 666.062 215.81C657.841 204.568 642.537 200.24 629.544 205.063C615.258 194.114 597.534 192.489 580.819 198.049ZM682.576 506.754C672.539 506.209 665.013 514.403 659.726 521.901C654.764 528.934 667.495 536.362 671.207 528.612C672.539 525.846 674.052 522.92 676.08 520.498C676.42 520.975 676.721 521.469 677.02 521.975L677.321 522.486C677.543 522.859 677.775 523.243 677.966 523.636C677.946 523.707 678.249 524.636 678.259 524.676C679.086 527.189 680.892 528.803 683.352 529.671C686.531 530.781 689.537 528.389 690.556 525.584C692.179 521.104 688.407 517.198 684.483 515.422C688.337 514.796 692.13 516.108 694.914 519.075C695.296 519.489 695.943 519.156 695.962 518.641C696.286 511.608 688.932 507.097 682.576 506.754Z" fill="black"/>
<path fill-rule="evenodd" clip-rule="evenodd" d="M462.449 612.469C469.23 609.702 475.281 605.086 479.704 599.189C481.242 597.139 481.641 594.974 481.319 592.994C480.956 590.768 479.639 588.75 477.843 587.396C476.042 586.039 473.789 585.369 471.611 585.711C469.718 586.007 467.834 587.044 466.342 589.194L466.031 589.624C463.401 593.183 459.974 596.103 456.069 597.986C452.305 599.8 448.096 600.647 443.74 600.154C435.444 599.217 429.726 594.729 423.648 588.634C422.894 587.864 422.141 587.071 421.383 586.264C420.905 585.533 420.241 585.063 419.504 584.817C418.685 584.543 417.76 584.559 416.912 584.855C416.094 585.14 415.363 585.681 414.872 586.401C414.407 587.086 414.142 587.931 414.228 588.904C414.784 595.22 418.086 600.857 422.775 605.283C427.983 610.199 434.886 613.6 441.385 614.793C448.546 616.107 455.842 615.165 462.449 612.469V612.469ZM438.008 515.028C430.39 519.66 418.782 530.461 426.977 541.944C436.624 552.069 450.512 540.46 457.356 535.21C463.703 531.141 470.833 541.606 464.945 546.357C415.49 582.984 395.42 516.239 434.155 509.582C438.419 508.848 440.003 513.595 438.008 515.028ZM526.632 472.422C525.79 461.971 509.879 459.598 508.296 469.939C506.879 479.203 508.547 487.713 512.718 496.054C516.704 504.022 526.722 500.304 527.48 493.049C528.495 483.323 527.155 478.923 526.632 472.422ZM405.511 467.795C403.293 464.889 400.09 462.905 396.252 464.026C384.263 467.531 387.797 484.558 392.007 492.846C394.295 497.346 401.691 498.488 405.033 494.525C410.481 488.062 413.089 475.157 406.164 468.791C405.976 468.462 405.768 468.13 405.511 467.795ZM512.887 426.692L510.993 426.36C505.135 425.347 497.85 424.373 493.705 429.085C491.507 431.583 490.75 436.227 493.705 438.619C498.902 442.827 504.648 441.196 510.877 441.552C516.01 441.847 520.943 442.697 525.887 444.111C536.733 447.212 545.572 452.873 554.835 459.089C556.051 459.905 557.292 458.349 556.712 457.212C551.364 446.734 541.001 438.127 530.62 432.881C525.08 430.081 519.017 427.758 512.887 426.692ZM416.441 421.998L414.991 422.295C399.216 425.594 378.721 432.183 371.251 447.682C370.966 449.874 371.267 450.344 371.512 450.651L371.593 450.753C371.795 451.015 371.955 451.376 372.905 451.674C373.169 451.612 373.435 451.545 373.704 451.475C377.128 450.577 379.837 449.34 382.46 448.057L385.304 446.656C388.603 445.037 391.931 443.478 395.459 442.327C402.987 439.871 410.73 438.14 418.593 437.216C420.297 437.016 421.938 436.441 423.233 435.455C424.462 434.519 425.4 433.223 425.828 431.501C426.383 429.271 426.224 427.584 425.028 425.572C424.129 424.062 422.843 423.015 421.365 422.414C419.859 421.801 418.145 421.657 416.441 421.998Z" fill="black"/>
</svg>
