<svg width="1235" height="1547" viewBox="0 0 1235 1547" fill="none" xmlns="http://www.w3.org/2000/svg">
<path fill-rule="evenodd" clip-rule="evenodd" d="M1075.56 922.92C1078.65 922.537 1081.68 921.437 1084.68 920.569C1089.27 919.227 1093.77 917.663 1098.2 915.877C1107.34 912.215 1116.21 907.884 1124.52 902.587C1137.95 894.019 1149.81 883.04 1158.76 869.82L1159.37 868.898C1164.48 861.114 1173.91 843.831 1163.34 837.921C1170.15 832.23 1176.59 822.007 1176.22 814.116C1175.71 802.955 1162.03 803.107 1154.96 807.839C1150.33 810.937 1146.86 815.276 1143.38 819.546C1139.52 824.288 1135.41 828.809 1131.13 833.158C1129.99 834.308 1128.85 835.436 1127.68 836.545L1126.51 837.648C1126.69 837.215 1126.85 836.771 1126.99 836.316C1129.35 828.96 1126.54 819.384 1119.18 816.013C1114.68 813.949 1110.01 815.209 1105.65 816.961L1104.98 817.234C1099.11 819.665 1093.17 821.816 1087.05 823.541C1062.14 830.575 1036.13 831.746 1010.6 835.257C1000.76 836.62 990.744 838.334 980.959 840.857C977.226 825.004 968.077 809.807 958.15 797.304C910.615 737.492 832.221 717.724 760.505 704.928C753.968 703.768 748.551 712.426 744.747 710.377C737.534 706.502 731.189 701.012 725.62 695.048C713.747 682.323 705.323 667.358 695.427 653.179C690.534 646.176 679.276 652.443 683.816 659.961L686.04 663.635C695.196 678.685 705.336 694.195 718.468 705.866C725.449 712.062 733.197 716.957 742.054 720.013C748.762 722.325 758.175 724.273 765.519 722.032L766.4 720.747C766.108 721.177 765.815 721.605 765.519 722.032C746.352 749.814 722.302 773.326 696.961 795.517C671.382 817.904 643.788 837.95 616.028 857.551L613.714 859.183C568.49 826.186 530.287 783.146 503.483 733.971C509.101 733.294 514.66 729.693 519.462 727.007C525.242 723.759 530.679 719.883 534.916 714.716C544.147 703.464 542.946 688.963 544.611 675.31C544.712 674.462 543.592 674.25 543.078 674.674C538.074 678.831 536.319 685.643 534.23 691.526C531.93 697.995 529.328 703.324 524.052 707.874C519.139 712.114 513.146 715.231 507.326 718.006C504.324 719.43 489.422 723.089 487.725 726.12C461.98 720.075 436.901 730.519 417.825 748.139C399.394 765.163 385.866 787.293 373.922 809.141C361.18 832.452 350.739 856.751 341.741 881.727C332.621 907.077 325.63 932.982 321.787 959.663C318.542 982.158 316.553 1005.01 315.266 1027.75L315.108 1030.6C296.062 1000.69 276.542 971.106 256.618 941.781C261.148 929.682 256.134 917.33 247.65 907.985C238.248 897.642 225.245 892.838 212.806 887.248L211.171 886.508C205.176 883.772 199.201 880.76 194.022 876.662C189.039 872.706 185.377 867.257 180.131 863.614C172.504 858.306 158.664 859.436 158.31 871.031C158.129 877.399 160.863 884.382 163.365 890.103C166.199 896.573 170.023 902.435 174.562 907.824C174.772 908.075 175.001 908.273 175.234 908.43L175.41 908.54C169.135 909.58 162.81 910.417 156.363 910.71C143.36 911.305 130.215 910.347 117.484 907.602C104.45 904.796 91.8201 900.236 80.0979 893.878C70.0804 888.448 60.7995 881.425 49.4202 879.77C48.3712 879.609 47.3119 879.508 46.2224 879.447C44.4066 879.346 42.5907 881.486 43.307 883.281C43.7004 884.271 44.114 885.25 44.568 886.239C48.5022 894.907 54.5367 903.316 62.0637 909.698L62.6456 910.185C59.9923 909.267 57.3794 908.238 54.807 907.077C39.685 900.266 25.9654 889.972 9.75393 885.835C8.98724 885.633 8.21041 885.451 7.43364 885.28C2.41989 884.2 -0.223222 889.649 2.72248 893.383C3.19662 893.989 3.67081 894.584 4.16512 895.179C11.3982 904.16 19.3778 912.496 28.1746 919.984C31.1909 922.547 34.2981 925.029 37.4657 927.402C38.8006 928.407 40.1429 929.39 41.4991 930.358L42.167 930.832C40.5832 929.713 39.0195 928.572 37.466 927.402C27.5393 924.393 17.7539 920.831 8.18039 916.887C4.3772 915.321 1.42143 919.176 1.01791 922.345C-0.333885 932.962 11.449 940.641 19.1159 945.747C26.803 950.874 35.2668 954.769 43.9324 957.897C60.5939 963.92 78.0934 966.655 95.5656 969.106L104.052 970.289C137.642 974.987 172.725 980.604 196.827 1006.75C210.334 1021.4 219.474 1039.61 227.837 1057.52C236.19 1075.41 243.524 1093.78 250.485 1112.24C257.698 1131.36 263.983 1150.82 270.661 1170.13C276.794 1187.85 284.121 1205.35 291.377 1222.67L292.522 1225.41C307.926 1262.22 326.327 1296.89 351.97 1327.63C356.197 1332.71 363.027 1325.5 359.123 1320.48C332.299 1285.88 313.636 1245.07 298.231 1204.35C291.22 1185.82 285.349 1166.85 278.61 1148.22L274.6 1137.15C269.246 1122.4 263.845 1107.67 258.212 1093.03C251.08 1074.51 243.242 1056.22 234.273 1038.52L233.322 1036.65C224.542 1019.58 214.11 1002.75 199.752 989.826C173.909 966.557 139.521 960.974 106.273 956.552L95.813 955.174C81.7561 953.305 67.6594 951.242 53.9902 947.482C46.1013 945.324 38.394 942.558 31.1508 938.743C28.2657 937.23 25.4511 935.566 22.7274 933.749C30.4951 936.03 38.3739 937.896 46.3938 939.359C50.3181 940.075 54.2021 940.611 58.0759 940.985C68.0525 941.972 77.9489 941.932 88.168 941.398C89.0356 941.347 89.318 939.985 88.3899 939.814C81.2733 938.548 74.1483 936.965 67.0529 935.247L64.9253 934.727C64.8849 933.547 64.4209 932.295 63.4525 931.105C59.9217 926.806 53.2131 924.605 48.5625 921.568C43.69 918.389 38.9689 914.959 34.4696 911.285C30.3537 907.925 26.3992 904.372 22.596 900.66L21.4558 899.539C21.8342 899.914 22.2143 900.287 22.596 900.659C32.8656 905.403 42.6005 911.487 53.3241 915.242C61.8484 918.238 70.7864 920.256 79.8051 920.973L80.3651 921.017L80.9249 921.054C90.3371 921.73 99.8098 921.457 109.081 923.496C110.12 923.728 110.443 922.335 109.514 921.942C101.414 918.571 92.9903 917.269 84.476 915.695C84.2945 915.029 83.8304 914.434 83.0234 914.05L80.845 913.01C74.3578 909.893 68.3111 906.747 62.918 901.688C58.1565 897.218 54.1918 891.991 51.2158 886.198C63.1298 888.812 73.5911 897.843 84.4257 902.919C96.2286 908.46 108.718 912.436 121.55 914.697L123.012 914.948C146.991 918.949 175.828 918.439 197.311 905.967C197.997 905.563 197.502 904.646 196.796 904.756C190.703 905.755 184.67 906.936 178.638 907.985C179.818 906.905 180.343 904.968 178.981 903.414C173.563 897.203 169.278 890.103 166.539 882.335L166.015 880.816C164.753 877.213 162.622 871.617 164.797 868.367C166.875 865.269 171.768 865.693 174.693 867.004C180.777 869.749 184.822 876.602 189.947 880.739C195.535 885.26 201.891 888.61 208.398 891.607L209.771 892.232C221.026 897.296 233.051 901.559 241.9 910.498C246.661 915.301 250.757 921.306 252.129 928.037C252.755 931.125 252.755 934.303 251.927 937.361C251.272 939.753 249.9 941.227 250.687 943.658C251.716 946.796 255.357 950.55 257.234 953.346C259.413 956.576 261.582 959.814 263.751 963.054C268.078 969.532 272.386 976.031 276.693 982.52C285.309 995.517 293.833 1008.58 302.287 1021.67C305.037 1025.94 307.779 1030.21 310.512 1034.48L314.604 1040.9L316.767 1044.28L320.455 1050.08C320.324 1050.62 320.334 1051.18 320.506 1051.67C321.134 1053.47 322.312 1054.69 323.775 1055.58L324.037 1055.73C345.564 1089.77 366.749 1124.03 388.146 1158.15C389.286 1168.56 390.355 1178.99 391.283 1189.41C393.392 1213.01 394.834 1236.66 395.298 1260.34C395.52 1271.81 394.602 1283.34 394.108 1294.8C393.866 1300.26 393.535 1305.72 393.102 1311.18L392.784 1315.05C392.358 1320.37 392.116 1325.64 394.027 1330.71C395.722 1335.16 400.887 1336.16 403.944 1332.77C443.822 1331.17 483.73 1329.94 523.638 1329.19C595.072 1327.81 666.535 1328.03 737.979 1329.41C773.862 1330.11 809.755 1331.08 845.628 1332.3C863.302 1332.88 880.986 1333.71 898.671 1333.95C908.198 1334.08 923.194 1330.61 923.963 1319.89L923.982 1319.56C925.172 1319.88 926.403 1320.14 927.664 1320.34C928.225 1320.42 928.764 1320.4 929.262 1320.28L929.51 1320.22C943.712 1324.55 961.678 1318.37 975.174 1314.77L976.288 1314.47C989.17 1311.11 999.521 1306.31 1007.96 1295.63C1022.74 1276.93 1027.79 1251.83 1030.41 1228.69C1032.87 1206.91 1033.01 1184.73 1030.02 1162.99C1031.78 1145.28 1030.06 1127.01 1028.05 1109.4C1027.06 1100.69 1025.9 1091.99 1024.51 1083.33C1023.73 1078.5 1022.71 1073.71 1021.67 1068.94C1021.26 1067.03 1020.91 1064.98 1020.39 1063L1020.15 1062.15C1021.76 1062.36 1023.53 1062.01 1025.24 1061.07C1029.29 1058.84 1030.47 1054.33 1030.54 1050.01C1030.76 1036.99 1029.21 1023.6 1027.84 1010.67C1026.46 997.748 1024.56 984.78 1022.08 972.025L1021.44 968.736C1019.55 959.194 1017.4 949.344 1013.61 940.378C1027.85 937.957 1042.04 935.384 1055.85 931.003C1062.59 928.854 1069.23 926.181 1075.56 922.92ZM332.621 1058.4C332.843 1058.45 333.055 1058.51 333.267 1058.57C338.957 1060.16 344.707 1061.51 350.437 1062.97C360.343 1065.46 370.028 1068.25 379.238 1072.57C381.168 1096.94 384.028 1121.22 386.747 1145.51L387.289 1150.37C383.112 1142.62 378.835 1134.93 374.366 1127.33C360.757 1104.17 346.835 1081.19 332.621 1058.4ZM1016.68 1060.81C1016.65 1063.7 1017.26 1066.71 1017.58 1069.5C1018.1 1074.02 1018.53 1078.56 1019.06 1083.08C1020.15 1092.16 1021.08 1101.25 1021.75 1110.38C1022.19 1116.2 1022.47 1122.04 1022.72 1127.89C1017 1106.5 1009.43 1085.58 1002.22 1064.63C1003.43 1064.51 1004.66 1064.21 1005.93 1063.87L1008.07 1063.3C1009.33 1062.97 1013.41 1061.97 1016.68 1060.81ZM314.604 1040.9L314.564 1041.86C314.412 1045.26 316.45 1047.18 318.922 1047.67C317.489 1045.41 316.046 1043.15 314.604 1040.9ZM969.115 879.72C963.093 880.254 957.191 881.537 951.562 883.757L951.019 883.969C946.856 885.576 940.768 887.596 939.406 892.042C939.023 893.303 940.052 894.342 941.232 894.443C945.752 894.807 951.078 889.962 955.265 888.327C959.925 886.511 964.808 885.158 969.751 884.442C980.858 882.817 992.439 884.049 1002.89 888.096C1003.51 888.338 1003.89 887.358 1003.33 887.066C992.802 881.334 981.09 878.661 969.115 879.72ZM1096.74 908.581C1097.44 907.965 1098.13 907.319 1098.82 906.674C1104.23 901.556 1109.02 895.582 1112.56 889.019L1113.5 887.242C1116.38 881.648 1119.93 873.679 1113.14 869.648C1109.09 867.237 1104.2 867.842 1099.68 869.305C1099.39 869.396 1099.1 869.498 1098.81 869.598C1096.79 870.305 1094.84 871.152 1093.11 871.959C1085.57 875.42 1078.92 880.456 1071.96 884.897C1064.42 889.711 1056.97 892.789 1048.27 894.59L1047.45 894.755C1039.28 896.371 1030.42 897.409 1024.72 904.13C1023.29 905.827 1024.6 909.004 1027.07 908.167C1042.83 902.85 1059.5 901.678 1073.97 892.949C1079.96 889.336 1085.63 885.19 1091.76 881.768C1095 879.95 1098.36 878.361 1101.93 877.271L1103.88 876.695C1105.03 876.361 1106.39 876.031 1107.31 876.36C1109.06 876.965 1108.5 877.901 1107.96 879.533L1107.91 879.699C1103.66 892.839 1091.55 903.838 1080.34 911.113C1077.76 912.789 1075.13 914.323 1072.45 915.746C1054.28 925.431 1033.96 929.938 1014 935.289C1014 935.289 1002.46 938.512 998.633 939.723C994.376 939.369 989.523 940.873 986.315 942.67C983.198 944.414 980.686 946.757 978.79 949.511C978.79 949.511 976.964 951.035 976.631 953.397C975.672 955.586 975.027 957.947 974.704 960.41C974.522 961.853 974.886 962.962 975.572 963.749C973.508 995.429 982.062 1026.93 991.706 1057.04L992.662 1060.01L993.276 1061.89C1003.68 1093.81 1015.61 1125.49 1020.94 1158.77C1024.5 1181.01 1024.39 1204.01 1021.77 1226.35L1021.59 1227.89C1019.02 1249 1014.06 1272.69 1000.64 1289.68C993.794 1298.35 985.683 1302.21 975.312 1305L974.744 1305.15C965.362 1307.62 955.678 1311.12 946.004 1312.18C937.025 1313.16 929.5 1309.82 921.419 1306.69L921.409 1306.68C904.391 1291.62 896.663 1269.68 890.953 1247.54C876.154 1190.24 877.99 1130.76 886.383 1072.63C890.762 1042.25 896.714 1012.14 902.645 982.036C905.611 966.99 908.809 951.974 911.462 936.877L913.038 927.992C913.907 923.056 914.748 918.116 915.467 913.152C916.436 906.482 916.728 899.923 917.061 893.212C925.212 879.7 937.045 868.569 950.755 860.587C960.571 854.865 970.961 850.899 981.685 848.023C1012.34 839.758 1045.76 840.343 1076.61 833.986C1086.98 831.853 1096.81 828.685 1106.65 824.89L1107.99 824.369C1112.5 822.613 1117.1 821.634 1119.34 826.952C1120.93 830.736 1119.98 834.672 1117.59 837.851C1111.73 845.641 1099.95 849.254 1091.08 852.059C1085.74 853.755 1080.3 855.097 1074.79 856.096C1069.28 857.095 1063.75 857.347 1058.47 859.295C1056.43 860.042 1056.02 863.281 1058.47 863.855C1065.16 865.42 1071.9 864.078 1078.56 862.776C1085.87 861.332 1093.08 859.285 1100.08 856.691C1101.37 856.215 1102.71 855.713 1104.07 855.179L1105.09 854.774C1104.03 855.541 1102.97 856.298 1101.9 857.055C1101.62 857.256 1101.79 857.791 1102.17 857.66C1118.63 851.517 1133.61 840.432 1145.21 827.318L1145.79 826.66C1149.87 821.977 1159.18 807.809 1167.03 811.754C1174.4 815.455 1161.84 829.721 1157.06 835.553L1156.51 836.237C1151.08 836.378 1145.83 839.757 1141.43 842.482C1133.79 847.216 1125.81 851.293 1117.68 855.106C1101.52 862.705 1084.36 868.065 1068.37 876.046C1068.16 876.158 1068.32 876.429 1068.52 876.4C1078.7 874.774 1088.77 872.181 1098.61 868.963L1099.04 868.825L1099.48 868.679C1105.63 866.661 1111.69 864.381 1117.65 861.948C1124.28 859.245 1130.76 856.207 1137.04 852.766C1142.73 849.658 1149.05 844.057 1155.64 843.23C1156.35 843.139 1156.97 843.128 1157.52 843.179C1165.1 843.815 1158.83 856.368 1156.71 860.122C1153.25 866.288 1149.08 871.98 1144.28 877.177C1134.57 887.732 1122.8 896.098 1110.05 902.607C1105.71 904.827 1101.26 906.785 1096.74 908.581Z" fill="black"/>
<path fill-rule="evenodd" clip-rule="evenodd" d="M389.685 687.178C401.195 633.129 408.579 578.383 415.186 523.567C418.384 497.017 420.937 470.397 423.893 443.826C426.656 419.071 429.875 394.237 436.332 370.139C442.333 347.746 451.111 325.575 464.044 306.241C476.168 288.116 491.412 272.586 508.914 259.618C543.497 233.996 587.723 220.363 630.737 224.884C637.235 225.57 643.671 226.67 650.037 228.144C648.009 227.548 645.96 226.992 643.893 226.509C643.227 226.348 643.523 225.451 644.175 225.511C819.177 241.416 860.342 545.859 864.084 607.244C864.377 612.018 864.608 616.781 864.779 621.554C866.092 632.201 867.07 642.878 867.535 653.584C868.058 665.935 867.806 678.369 866.667 690.679C865.497 703.303 864.165 716.241 858.898 727.846C855.671 734.99 705.158 725.203 703.604 716.765C700.457 699.731 698.843 682.153 699.83 664.826C700.294 656.52 701.153 648.276 702.928 640.142C703.412 637.922 703.927 633.754 705.227 630.454C691.498 604.359 676.397 579.009 660.851 553.952C628.498 501.78 594.099 450.576 567.658 395.013C554.401 367.172 541.338 337.605 535.084 307.098L534.075 307.3C534.196 307.663 534.115 308.117 533.752 308.37C505.011 328.239 485.803 358.352 473.354 390.595C458.858 428.133 451.827 468.67 452.836 508.894C454.439 572.813 478.66 651.808 547.189 672.01C562.826 676.622 579.712 677.924 595.733 674.553C603.289 672.959 610.693 670.506 617.513 666.874C625.079 662.847 631.293 657.146 638.384 652.454C644.872 648.166 652.528 656.53 648.796 662.878C640.554 676.905 622.819 685.482 607.586 689.7C591.334 694.211 574.194 694.424 557.64 691.558C556.379 691.345 555.128 691.103 553.888 690.841C553.605 694.998 551.82 699.137 548.914 702.497C547.613 704.011 546.009 705.321 544.213 706.422C543.98 710.48 541.367 714.555 537.12 715.444C514.433 720.166 420.211 707.784 397.553 701.032C391.47 699.218 388.394 693.254 389.685 687.178" fill="black"/>
<path fill-rule="evenodd" clip-rule="evenodd" d="M515.978 541.944C507.783 530.461 519.39 519.66 527.008 515.028C529.004 513.595 527.42 508.848 523.155 509.582C484.42 516.239 504.49 582.984 553.945 546.357C559.833 541.606 552.703 531.141 546.357 535.21C546.035 535.457 545.698 535.717 545.346 535.99C538.216 541.504 525.171 551.593 515.978 541.944ZM593.941 426.36L595.835 426.692C601.964 427.758 608.027 430.081 613.568 432.881C623.948 438.127 634.312 446.734 639.659 457.212C640.239 458.349 638.999 459.905 637.783 459.089C628.519 452.873 619.681 447.212 608.834 444.111C603.89 442.697 598.957 441.847 593.824 441.552C592.233 441.461 590.673 441.5 589.146 441.538C584.696 441.648 580.522 441.752 576.653 438.619C573.698 436.227 574.454 431.583 576.653 429.085C580.797 424.373 588.082 425.347 593.941 426.36ZM492.895 422.295L494.344 421.998C496.049 421.657 497.763 421.801 499.269 422.414C500.746 423.015 502.033 424.062 502.932 425.572C504.127 427.584 504.287 429.271 503.732 431.501C503.304 433.223 502.365 434.519 501.136 435.455C499.842 436.441 498.201 437.016 496.496 437.216C488.633 438.14 480.89 439.871 473.362 442.327C469.835 443.478 466.507 445.037 463.207 446.656L460.363 448.057C457.741 449.34 455.031 450.577 451.607 451.475C451.338 451.545 451.072 451.612 450.809 451.674C449.971 451.411 449.747 451.099 449.568 450.85C449.544 450.816 449.52 450.784 449.497 450.753L449.415 450.651C449.171 450.344 448.87 449.874 449.154 447.682C456.625 432.183 477.12 425.594 492.895 422.295ZM574.961 498.536C578.026 500.326 581.302 499.458 583.912 497.381C585.528 496.096 586.753 494.452 587.981 492.805C589.42 490.874 590.864 488.938 592.943 487.569C596.204 485.421 600.574 485.308 604.323 485.929C609.95 486.861 614.809 489.517 619.682 492.181C622.442 493.69 625.206 495.201 628.117 496.403C629.246 496.869 629.907 495.421 629.527 494.568C624.651 483.605 614.469 473.826 602.357 471.868C589.692 469.819 575.989 478.164 571.568 490.192C570.452 493.226 572.305 496.984 574.961 498.536ZM454.628 485.758C454.367 485.855 454.103 485.56 454.18 485.31C457.382 474.89 469.444 470.503 479.568 471.372C485.832 471.91 491.591 474.201 496.34 478.385C500.869 482.376 504.397 489.929 500.298 495.451C496.082 501.128 487.428 499.292 486.935 491.831C486.616 486.992 478.292 484.006 474.076 483.261C467.528 482.106 460.753 483.486 454.628 485.758ZM571.879 585.708C568.913 586.883 543.835 588.036 529.025 587.36C518.927 586.906 492.733 580.782 492.733 578.156C492.733 575.528 493.848 573.154 494.807 573.254C498.704 573.675 529.741 574.017 551.595 574.258L551.599 574.258L551.602 574.258C561.255 574.364 569.115 574.451 572.051 574.516C573.493 574.547 575.007 574.516 576.54 574.475C577.602 577.763 574.845 584.532 571.879 585.708ZM521.673 566.587H521.672C510.014 566.486 495.857 566.363 485.768 566.958C482.166 567.17 480.391 572.317 480.139 574.759C477.748 597.454 495.866 615.558 515.87 622.572C534.432 629.081 558.946 630.312 575.501 618.152C582.694 612.874 588.141 605.558 591.692 597.414C593.609 593.024 595.011 588.473 595.788 583.75C595.862 583.304 595.944 582.838 596.028 582.358L596.028 582.357C596.626 578.964 597.349 574.854 596.191 571.752C594.514 567.288 590.076 567.239 585.998 567.194C585.66 567.19 585.325 567.187 584.994 567.18C583.359 567.147 581.725 567.112 580.091 567.076L580.069 567.076L580.064 567.076H580.064C575.736 566.982 571.409 566.888 567.087 566.837C557.784 566.732 548.481 566.704 539.182 566.677H539.178C535.944 566.668 532.711 566.658 529.479 566.646C527.077 566.634 524.446 566.611 521.673 566.587ZM626.265 550.09C627.781 555.911 630.971 562.679 636.381 565.851C639.276 567.549 643.569 568.175 645.238 564.686C648.35 558.176 643.986 548.138 641.336 542.283C639.114 537.371 636.311 532.684 632.916 528.489C631.054 526.187 628.99 524.074 626.913 521.969C626.506 521.556 626.069 521.175 625.635 520.798L625.635 520.797C625.029 520.269 624.43 519.748 623.935 519.157C625.455 522.57 625.517 527.024 625.532 530.4C625.541 532.224 625.472 534.047 625.403 535.867L625.403 535.867C625.222 540.639 625.042 545.39 626.265 550.09ZM616.307 517.324C616.558 515.338 618.362 514.016 620.292 515.037C621.415 515.63 622.286 516.47 622.978 517.456C622.963 517.412 622.948 517.369 622.932 517.326L622.932 517.325C622.901 517.239 622.87 517.152 622.849 517.058C622.813 516.899 622.896 516.678 623.08 516.65C627.548 515.979 633.272 522.17 636.42 525.575C636.643 525.815 636.852 526.042 637.047 526.251C641.496 531.016 645.468 536.503 648.199 542.437C651.681 550.006 655.442 561.448 650.657 569.293C644.003 580.204 630.061 571.972 624.774 564.435C620.346 558.12 618.056 550.421 617.799 542.753C617.723 540.497 617.812 538.243 617.901 535.988C617.985 533.854 618.07 531.72 618.014 529.585C617.968 527.794 617.542 525.991 617.118 524.197C616.569 521.877 616.024 519.572 616.307 517.324ZM456.878 553.999C453.757 556.856 448.336 557.915 444.71 555.219C439.893 551.639 444.046 545.056 446.702 540.845C446.97 540.42 447.223 540.02 447.449 539.649C451.105 533.668 454.706 527.659 458.282 521.632C458.93 520.54 459.695 519.395 460.489 518.215C460.744 519.916 461.067 521.583 461.362 523.112C461.621 524.451 461.86 525.684 462.014 526.742C463.323 535.664 464.25 547.25 456.878 553.999ZM443.83 528.324C440.294 533.896 436.581 539.747 434.967 545.886C431.836 557.802 442.172 566.547 453.629 563.988C465.585 561.318 470.023 547.41 469.771 536.547C469.655 531.546 468.615 526.476 467.604 521.549C467.466 520.874 467.328 520.201 467.193 519.532C466.917 518.166 466.717 516.751 466.516 515.328C466.236 513.345 465.954 511.346 465.462 509.438C466.022 507.888 466.352 506.32 466.294 504.751C466.201 502.255 463.698 500.929 461.526 502.014C458.438 503.558 456.831 506.423 455.199 509.333C454.865 509.929 454.529 510.527 454.18 511.116C452.967 513.162 451.753 515.207 450.54 517.253C449.37 519.225 448.2 521.198 447.031 523.169C446.028 524.86 444.937 526.578 443.83 528.324Z" fill="black"/>
</svg>
