<svg width="1146" height="1547" viewBox="0 0 1146 1547" fill="none" xmlns="http://www.w3.org/2000/svg">
<path fill-rule="evenodd" clip-rule="evenodd" d="M932.912 1009.69C931.209 1004.81 923.415 1006.92 925.131 1011.84C933.952 1037.11 927.694 1064.62 918.158 1088.74C916.244 1093.58 924.052 1095.66 925.94 1090.89C935.971 1065.51 942.177 1036.24 932.912 1009.69M873.767 1154.06C848.89 1157.56 823.993 1159.72 798.944 1161.47C797.825 1161.55 796.856 1161.38 796.019 1161.01C796.765 1172.49 797.371 1183.97 797.845 1195.45C804.674 1195.26 811.645 1195.72 818.414 1195.54C827.262 1195.29 836.099 1194.85 844.926 1194.17C862.015 1192.88 879.074 1190.82 895.971 1187.98C902.286 1186.92 910.306 1186.27 917.499 1184.17C924.298 1182.19 930.351 1178.89 933.529 1172.7C936.232 1167.45 936.727 1161.02 936.727 1155.22C936.727 1151.22 936.041 1147.17 935.627 1143.14C935.113 1142.78 934.649 1142.34 934.275 1141.86C926.77 1144.23 918.982 1145.9 911.355 1147.51C898.937 1150.15 886.337 1152.3 873.767 1154.06M887.798 1060.75C887.661 1068.47 885.527 1075.47 881.376 1081.97C878.567 1086.36 885.555 1090.41 888.345 1086.04C893.231 1078.4 895.707 1069.81 895.868 1060.75C895.961 1055.55 887.891 1055.56 887.798 1060.75M250.105 1144.9C246.737 1145.09 243.347 1145.2 239.969 1145.38C236.989 1147.93 232.863 1149.24 229.095 1148.43C228.965 1148.75 228.847 1149.12 228.739 1149.54C228.073 1152.13 227.74 1154.92 227.357 1157.56C226.973 1160.17 226.681 1162.79 226.479 1165.41C226.378 1166.73 225.743 1169.72 226.55 1170.87C227.276 1171.91 228.88 1171.82 229.99 1171.95C232.976 1172.27 236.002 1172.43 239.009 1172.68C244.688 1173.17 250.368 1173.67 256.037 1174.16C261.596 1174.65 267.699 1174.5 273.136 1175.96C274.064 1165.05 274.912 1154.14 275.699 1143.22C267.275 1144.46 258.468 1144.43 250.105 1144.9M956.388 1126.8C952.999 1133.35 949.871 1139.79 943.385 1143.73C942.537 1144.23 941.589 1144.5 940.621 1144.57C941.347 1147.69 941.801 1150.88 942.205 1153.83C943.092 1160.32 943.284 1167.03 941.66 1173.43C940.076 1179.65 937.453 1185.21 932.308 1189.2C929.917 1191.06 927.305 1192.47 924.561 1193.59C925.025 1194.89 925.297 1196.18 925.156 1197.61C925.811 1200.9 926.245 1204.27 926.719 1207.48C927.758 1214.63 928.798 1221.78 929.615 1228.97C931.249 1243.26 932.53 1257.55 933.61 1271.89C934.689 1286.19 935.466 1300.51 936.111 1314.84C936.444 1322.16 936.737 1329.49 937.009 1336.82C937.282 1344.36 938.502 1352.07 935.173 1359.07C932.49 1364.72 923.421 1364.39 920.636 1359.07C917.106 1352.29 918.145 1344.25 918.054 1336.82C917.963 1329.83 917.842 1322.83 917.691 1315.83C917.388 1301.52 916.944 1287.2 916.591 1272.89C916.248 1258.91 915.824 1244.94 915.542 1230.97C915.401 1223.65 915.391 1216.33 915.35 1209.02C915.33 1204.96 915.159 1200.63 915.461 1196.4C912.939 1197 910.397 1197.5 907.885 1198.02C888.708 1201.95 869.329 1204.82 849.828 1206.6C840.033 1207.48 830.207 1208.11 820.382 1208.46C813.158 1208.72 805.673 1209.23 798.339 1208.96C798.914 1226.48 799.176 1244 799.146 1261.53C799.126 1274.18 798.955 1286.82 798.642 1299.47C798.47 1306.12 798.329 1312.77 798.127 1319.42C798.037 1322.4 798.037 1325.42 797.835 1328.4C797.774 1329.33 797.643 1330.23 797.472 1331.11C798.137 1333 798.692 1334.87 799.146 1336.61C801.366 1345.09 801.366 1353.23 800.377 1361.87C799.53 1369.2 793.366 1375.99 785.225 1373.42C783.903 1373 782.582 1372.57 781.27 1372.12C769.286 1373.49 757.23 1373.8 745.074 1374.03C727.309 1374.37 709.534 1374.48 691.759 1374.58C656.895 1374.76 622.021 1374.85 587.146 1374.95C517.065 1375.15 446.983 1375.34 376.902 1375.54C357.452 1375.61 338.002 1375.66 318.553 1375.72C308.485 1375.75 298.437 1375.76 288.379 1376.14C283.688 1376.32 278.987 1376.57 274.296 1376.65C268.859 1376.74 264.047 1375.17 258.852 1373.75C255.916 1372.93 254.756 1369.98 255.381 1367.49C250.68 1368.61 244.981 1366.23 243.377 1360.93C242.206 1357.09 242.64 1352.92 244.385 1349.36V1349.35C247.755 1328.06 252.032 1306.88 255.391 1285.59C259.074 1262.27 262.614 1238.9 265.732 1215.49C268.072 1197.81 269.999 1210.34 271.663 1192.58C264.41 1193.14 256.209 1190.93 249.026 1190C243.871 1189.33 238.676 1188.79 233.511 1188.09C233.894 1193.3 233.783 1198.6 233.924 1203.6C234.196 1213.52 234.075 1223.4 233.823 1233.32C233.339 1252.46 232.26 1241.32 230.535 1260.38C228.789 1279.59 226.651 1298.72 224.058 1317.83C222.726 1327.67 221.304 1337.5 219.801 1347.32C219.105 1351.9 218.389 1356.47 217.652 1361.05C216.774 1366.45 216.492 1371.57 212.447 1375.63C209.37 1378.7 203.085 1378.44 201.047 1374.15C198.465 1368.73 199.635 1364.09 200.593 1358.4C201.37 1353.83 202.117 1349.26 202.853 1344.69C204.427 1334.89 205.92 1325.08 207.322 1315.26C210.026 1296.34 212.578 1277.39 214.858 1258.42C217.158 1239.29 219.539 1250.46 221.798 1231.34C222.938 1221.69 224.078 1212.07 225.41 1202.45C226.086 1197.5 226.509 1192.24 227.397 1187.14C227.115 1187.1 226.832 1187.05 226.55 1187C220.416 1185.88 215.181 1182.42 213.637 1176.1C212.164 1170.05 213.92 1163.1 215.16 1157.17C216.22 1152.12 217.177 1145.66 220.429 1141.33C208.969 1126.73 201.515 1108.36 196.761 1090.69C191.582 1071.45 189.414 1051.36 188.955 1031.47C188.422 1008.43 190.158 985.523 194.106 962.995C194.198 958.221 194.418 953.449 194.772 948.681C198.243 901.899 212.81 846.528 258.993 824.669C259.174 824.579 259.366 824.498 259.558 824.417C263.179 820.088 267.699 816.192 271.351 812.55C277.817 806.091 284.576 799.915 291.739 794.224C305.922 782.953 321.478 773.951 337.649 765.847C354.002 757.643 370.597 749.944 386.576 740.992C400.498 733.181 413.027 723.776 424.921 713.16C438.287 701.222 447.8 685.126 451.533 667.557C451.725 666.64 453.087 666.892 453.107 667.769C454.085 699.971 432.356 728.428 407.347 746.431C377.447 767.937 341.341 778.118 311.017 798.968C303.481 804.144 296.43 809.987 289.721 816.192C300.001 815.143 310.462 815.809 320.096 818.655C323.889 818.423 327.702 818.353 331.506 818.17C340.201 817.736 348.907 817.334 357.613 816.949C375.358 816.163 393.113 815.447 410.868 814.821C445.702 813.589 480.546 812.66 515.39 812.046C585.411 810.804 655.523 810.561 725.534 812.591C744.52 813.136 844.351 809.352 853.591 810.42C840.003 798.654 825.093 789.048 808.7 781.145C788.191 771.286 766.996 764.707 745.095 758.692C699.991 746.31 653.152 734.372 617.057 702.917C608.089 695.097 600.12 686.106 593.593 676.146C587.358 666.64 580.428 654.469 580.256 642.874C580.135 634.64 591.595 631.642 595.671 638.696C598.203 643.066 599.454 647.859 601.522 652.441C603.58 656.982 606.021 661.361 608.735 665.55C614.071 673.785 620.689 681.13 627.892 687.76C643.246 701.908 661.848 712.272 681.096 720.113C724.797 737.904 772.595 745.412 814.006 768.865C832.124 779.127 849.465 793.286 860.35 811.349C862.106 811.622 863.851 811.944 865.596 812.307C864.295 810.662 862.983 809.019 861.662 807.383C860.794 806.313 862.136 804.901 863.195 805.849C883.785 824.175 902.75 843.964 919.94 865.539C936.384 886.186 951.718 907.823 962.572 932.002C982.083 975.435 986.38 1025.11 976.302 1071.55C973.558 1084.21 969.684 1096.6 964.751 1108.58C962.209 1114.76 959.455 1120.86 956.388 1126.8" fill="black"/>
<path fill-rule="evenodd" clip-rule="evenodd" d="M558.947 244.378C519.1 242.259 445.678 260.516 410.915 281.921C354.273 316.795 349.883 386.363 352.193 398.392C353.071 402.982 355.875 407.231 360.264 405.819C356.541 437.424 356.834 455.489 356.208 487.276L355.779 508.499C355.5 522.647 355.26 536.797 355.199 550.951C353.767 550.418 352.355 551.073 351.83 552.446C351.699 552.779 352.153 552.961 352.375 552.769C354.897 550.568 353.101 555.583 352.234 556.604C351.033 558.006 349.036 559.328 347.633 560.529L343.825 563.827V563.827L340.017 567.119C335.097 571.365 330.339 575.619 325.749 580.193L324.502 581.448C316.139 589.945 305.657 598.169 300.452 609.159C295.478 619.653 297.012 631.551 305.274 639.917C308.28 642.954 311.791 645.276 315.604 647.032C308.815 658.213 307.826 672.997 314.908 684.5C322 696.046 335.639 702.09 348.773 701.162C349.177 702.807 349.802 704.411 350.63 705.934C355.838 715.508 366.198 716.751 376.022 716.239L376.405 716.218C398.517 714.946 419.793 709.406 439.162 698.639C445.881 699.093 451.873 693.572 453.184 687.517C456.715 687.387 460.266 687.094 463.888 686.68C474.632 685.44 485.648 683.129 495.12 677.669C496.573 676.832 495.897 674.622 494.283 674.58C482.742 674.318 471.192 675.116 459.671 673.865C449.099 672.723 437.83 669.808 427.974 665.842C410.26 658.698 395.067 646.578 386.684 629.785C375.829 608.048 376.818 581.943 375.638 558.329C374.33 532.191 372.721 506.077 371 479.965L370.165 467.449C368.493 443.052 367.11 430.001 362.876 404.679C375.638 405.819 428.649 386.733 445.134 355.513C476.422 421.929 634.942 394.747 641.972 496.994C642.031 497.861 643.404 497.62 643.455 496.791L643.586 494.461C643.649 493.31 643.706 492.176 643.745 491.052L643.778 489.93L646.269 489.961C646.269 490.272 646.713 490.384 646.824 490.051C649.175 483.38 660.372 485.529 665.245 487.115C669.633 488.547 673.769 490.747 677.482 493.462C684.937 498.912 690.717 506.248 692.634 515.42C696.276 532.839 685.189 550.579 670.47 558.985C661.19 564.283 651.021 567.704 642.123 573.708C634.265 579.006 626.941 585.213 620.595 592.266C595.456 620.209 580.667 662.593 592.561 699.477C593.469 702.292 595.87 705.51 599.047 705.965C604.303 706.722 609.559 705.955 612.505 700.95C613.655 698.992 614.199 696.762 614.078 694.562C616.116 701.564 622.724 708.488 628.817 711.092C637.119 714.644 646.471 713.583 653.795 709.002L654.72 709.687C666.631 718.456 679.936 726.449 695.196 724.836C706.253 723.665 717.107 718.035 723.221 709.154C731.352 713.726 740.038 717.368 748.996 719.85L749.949 720.112C762.274 723.469 777.995 726.546 789.499 719.729C800.546 713.18 804.218 698.88 801.625 686.942C801.312 685.52 800.919 684.138 800.435 682.796C808.747 683.239 817.05 682.442 824.938 680C832.999 677.507 840.686 672.713 844.55 664.944C848.908 656.154 847.747 646.164 844.499 637.213C839.304 622.852 830.951 610.077 820.55 598.947C810.548 588.235 798.484 579.147 785.945 571.571L783.831 570.306C772.544 563.572 758.933 555.681 745.596 556.2C745.636 556.028 745.667 555.866 745.687 555.695C747.704 540.831 747.472 525.674 747.947 510.688C748.38 496.903 748.875 483.119 749.197 469.324C749.722 445.87 749.551 422.318 746.494 399.028C743.78 378.361 738.898 358.207 729.99 339.286C720.638 319.407 706.555 302.443 689.164 289.103C652.665 261.099 604.454 246.8 558.947 244.378ZM682.919 519.84C678.945 512.343 669.896 509.981 661.956 511.333C650.829 513.231 643.263 522.96 636.767 531.325C629.947 540.094 644.171 548.359 647.833 539.863L648.701 537.855C651.64 531.118 655.111 524.013 661.109 519.618C667.485 514.956 676.483 514.27 682.112 520.466C682.516 520.92 683.192 520.335 682.919 519.84Z" fill="black"/>
<path fill-rule="evenodd" clip-rule="evenodd" d="M431.23 576.555C427.768 570.446 417.44 571.439 415.862 578.564C412.659 593.009 429.878 606.348 442.956 606.681C455.952 607.011 470.535 595.945 468.653 581.969C468.188 578.512 463.572 578.931 461.998 581.099L461.387 581.931C457.113 587.675 451.473 593.62 443.54 592.22C440.252 591.64 437.266 589.586 435.279 586.941C432.882 583.749 433.145 579.938 431.23 576.555ZM513.869 470.878C512.108 470.393 510.331 470.58 508.77 471.244C505.286 471.883 502.375 474.789 501.352 478.107C501.272 478.395 501.181 478.678 501.082 478.959L500.927 479.378L501.344 478.314C501.151 479.362 500.299 480.463 499.992 481.514C499.615 482.807 499.523 484.275 499.65 485.698C498.543 485.709 497.435 485.747 496.329 485.842L495.261 485.938C489.286 486.494 482.726 487.513 479.184 492.677C477.194 495.579 479.062 500.805 482.717 501.364C488.343 502.225 493.189 499.11 498.796 498.487C504.096 497.896 509.643 498.235 514.874 499.192C525.675 501.167 535.601 505.547 546.126 508.295L547.559 508.659V508.659L547.557 508.652C549.361 509.088 551.409 506.579 549.624 505.112C541.192 498.182 530.396 492.566 519.76 489.146C521.309 486.681 521.789 483.434 520.729 480.787C520.565 480.238 520.362 479.705 520.147 479.173L519.699 478.079V478.079C519.656 477.563 519.557 477.054 519.414 476.554L519.391 476.402V476.402L519.378 476.411V476.411C518.586 473.837 516.518 471.609 513.869 470.878ZM406.286 471.276C403.979 468.968 400.739 469.309 398.332 471.126L398.012 471.376V471.376C395.744 472.384 393.866 474.587 392.634 476.629C391.353 478.749 390.503 480.909 390.47 483.243C384.887 483.261 379.539 484.936 375.441 489.445C374.117 490.9 373.213 493.144 373.941 495.117L374.375 496.291V496.291C375.752 500.017 381.939 502.162 384.042 497.78L384.139 497.566C386.374 492.363 394.952 492.909 399.511 493.441C402.688 493.813 405.827 494.603 408.895 495.488C409.977 495.8 411.048 496.139 412.119 496.484L413.189 496.832C413.76 497.016 416.734 498.632 414.884 498.249C414.386 498.147 414.012 498.871 414.52 499.114C416.725 500.169 419.077 498.069 418.93 495.699C418.675 491.586 412.146 489.331 409.004 487.913L408.816 487.827C407.611 487.27 406.349 486.736 405.047 486.241C405.779 485.151 406.385 483.94 406.888 482.64C407.364 481.413 407.682 480.22 407.856 478.915C408.028 478.278 408.028 477.64 407.856 477.001L407.83 476.819V476.819C407.919 476.397 407.961 475.961 407.955 475.522L407.973 475.351H407.955C407.894 473.814 407.283 472.274 406.286 471.276ZM443.135 515.078C434.275 517.816 419.658 525.277 424.275 536.792C430.722 547.368 447.82 539.595 456.106 536.179C463.55 533.712 467.425 544.148 460.228 547.293C400.75 570.831 400.968 508.71 440.979 509.622C445.384 509.722 445.522 514.167 443.135 515.078ZM521.827 434.077L520.316 433.636C512.462 431.361 504.445 427.431 497.472 433.562C494.734 435.97 494.17 440.974 496.13 443.977C500.592 450.82 507.211 449.774 514.419 450.357C519.907 450.801 525.313 452.414 530.436 454.429C534.622 456.077 538.505 458.397 542.171 460.985C545.773 463.529 548.233 467.506 551.927 469.795C553.281 470.635 554.845 469.771 555.331 468.41C557.054 463.581 554.143 457.566 551.679 453.451C548.672 448.432 544.104 444.327 539.192 441.221C533.814 437.819 527.866 435.855 521.827 434.077V434.077ZM407.391 428.882C394.116 428.878 381.342 436.263 373.918 447.09C371.395 450.769 373.244 456.218 376.865 458.336C380.928 460.714 385.272 459.002 387.95 455.595L388.108 455.388C392.367 449.716 397.856 445.249 404.362 442.34C407.537 440.921 411.048 439.769 414.482 439.185L415.591 438.995C417.147 438.734 418.951 438.485 420.358 438.729C421.111 438.828 421.803 439.077 422.441 439.456C422.134 440.126 422.926 440.934 423.658 440.532C426.956 438.72 426.552 435.486 423.827 432.974C419.972 429.418 412.369 428.883 407.391 428.882Z" fill="black"/>
</svg>
